<?xml version="1.0" encoding="UTF-8" standalone="no"?>
<!-- Created with Inkscape (http://www.inkscape.org/) -->

<svg
   xmlns:dc="http://purl.org/dc/elements/1.1/"
   xmlns:cc="http://creativecommons.org/ns#"
   xmlns:rdf="http://www.w3.org/1999/02/22-rdf-syntax-ns#"
   xmlns:svg="http://www.w3.org/2000/svg"
   xmlns="http://www.w3.org/2000/svg"
   xmlns:xlink="http://www.w3.org/1999/xlink"
   xmlns:sodipodi="http://sodipodi.sourceforge.net/DTD/sodipodi-0.dtd"
   xmlns:inkscape="http://www.inkscape.org/namespaces/inkscape"
   width="256"
   height="256"
   viewBox="0 0 67.733335 67.733332"
   version="1.1"
   id="svg8"
   inkscape:version="0.92.3 (2405546, 2018-03-11)"
   sodipodi:docname="architecture.svg">
  <sodipodi:namedview
     id="base"
     pagecolor="#ffffff"
     bordercolor="#666666"
     borderopacity="1.0"
     inkscape:pageopacity="0.0"
     inkscape:pageshadow="2"
     inkscape:zoom="2.0000001"
     inkscape:cx="-33.360402"
     inkscape:cy="249.40102"
     inkscape:document-units="px"
     inkscape:current-layer="layer1"
     showgrid="false"
     units="px"
     inkscape:window-width="1918"
     inkscape:window-height="1528"
     inkscape:window-x="-7"
     inkscape:window-y="0"
     inkscape:window-maximized="0"
     inkscape:snap-nodes="false"
     inkscape:pagecheckerboard="true" />
  <defs
     id="defs2">
    <linearGradient
       inkscape:collect="always"
       id="linearGradient6194">
      <stop
         style="stop-color:#97cff5;stop-opacity:1"
         offset="0"
         id="stop6190" />
      <stop
         style="stop-color:#7082ef;stop-opacity:0.98823529"
         offset="1"
         id="stop6192" />
    </linearGradient>
    <linearGradient
       inkscape:collect="always"
       id="linearGradient6186">
      <stop
         style="stop-color:#b580ea;stop-opacity:1"
         offset="0"
         id="stop6182" />
      <stop
         style="stop-color:#cdbef5;stop-opacity:1"
         offset="1"
         id="stop6184" />
    </linearGradient>
    <linearGradient
       inkscape:collect="always"
       id="linearGradient6178">
      <stop
         style="stop-color:#f7a568;stop-opacity:1"
         offset="0"
         id="stop6174" />
      <stop
         style="stop-color:#f7c682;stop-opacity:1"
         offset="1"
         id="stop6176" />
    </linearGradient>
    <linearGradient
       inkscape:collect="always"
       id="linearGradient6170">
      <stop
         style="stop-color:#eeeb61;stop-opacity:1"
         offset="0"
         id="stop6166" />
      <stop
         style="stop-color:#c3a234;stop-opacity:0.99607843"
         offset="1"
         id="stop6168" />
    </linearGradient>
    <linearGradient
       inkscape:collect="always"
       id="linearGradient6162">
      <stop
         style="stop-color:#57d790;stop-opacity:1"
         offset="0"
         id="stop6158" />
      <stop
         style="stop-color:#a0e9ca;stop-opacity:1"
         offset="1"
         id="stop6160" />
    </linearGradient>
    <linearGradient
       inkscape:collect="always"
       id="linearGradient6152">
      <stop
         style="stop-color:#87f2f5;stop-opacity:1"
         offset="0"
         id="stop6148" />
      <stop
         style="stop-color:#53beed;stop-opacity:1"
         offset="1"
         id="stop6150" />
    </linearGradient>
    <linearGradient
       inkscape:collect="always"
       xlink:href="#linearGradient6152"
       id="linearGradient6156"
       x1="802.81055"
       y1="434.41446"
       x2="1082.8793"
       y2="412.26489"
       gradientUnits="userSpaceOnUse"
       gradientTransform="matrix(0.99462327,0,0,0.99462327,6.2411304,7.1481675)" />
    <linearGradient
       inkscape:collect="always"
       xlink:href="#linearGradient6162"
       id="linearGradient6164"
       x1="595.86328"
       y1="359.41504"
       x2="940.55273"
       y2="359.41504"
       gradientUnits="userSpaceOnUse"
       gradientTransform="matrix(0.99462327,0,0,0.99462327,10.219624,7.1481675)" />
    <linearGradient
       inkscape:collect="always"
       xlink:href="#linearGradient6170"
       id="linearGradient6172"
       x1="391.91992"
       y1="369.53418"
       x2="716.67383"
       y2="369.53418"
       gradientUnits="userSpaceOnUse"
       gradientTransform="matrix(0.99462327,0,0,0.99462327,10.219624,8.1583219)" />
    <linearGradient
       inkscape:collect="always"
       xlink:href="#linearGradient6178"
       id="linearGradient6180"
       x1="835.8103"
       y1="654.25812"
       x2="255.35431"
       y2="499.25809"
       gradientUnits="userSpaceOnUse"
       gradientTransform="matrix(0.99462327,0,0,0.99462327,10.219624,7.1481675)" />
    <linearGradient
       inkscape:collect="always"
       xlink:href="#linearGradient6186"
       id="linearGradient6188"
       x1="156.58984"
       y1="262.64258"
       x2="619.93359"
       y2="262.64258"
       gradientUnits="userSpaceOnUse"
       gradientTransform="matrix(0.99462323,0,0,0.99462323,10.219624,7.1481673)" />
    <linearGradient
       inkscape:collect="always"
       xlink:href="#linearGradient6194"
       id="linearGradient6196"
       x1="5.8115315"
       y1="189.92358"
       x2="74.678276"
       y2="186.71078"
       gradientUnits="userSpaceOnUse"
       gradientTransform="matrix(3.7592062,0,0,3.7592062,10.219624,-319.90277)" />
    <linearGradient
       gradientUnits="userSpaceOnUse"
       y2="4.0599999"
       x2="9"
       y1="17.860001"
       x1="9"
       id="b0415b5b-3b98-48a9-9263-d680ffce93e8">
      <stop
         id="stop6482"
         stop-color="#0078d4"
         offset="0" />
      <stop
         id="stop6484"
         stop-color="#1380da"
         offset="0.16" />
      <stop
         id="stop6486"
         stop-color="#3c91e5"
         offset="0.53" />
      <stop
         id="stop6488"
         stop-color="#559cec"
         offset="0.82" />
      <stop
         id="stop6490"
         stop-color="#5ea0ef"
         offset="1" />
    </linearGradient>
    <clipPath
       id="clipPath4174"
       clipPathUnits="userSpaceOnUse">
      <path
         inkscape:connector-curvature="0"
         id="path4176"
         d="M 0,65.333 H 350 V 0 H 0 Z" />
    </clipPath>
    <clipPath
       id="clipPath4174-0"
       clipPathUnits="userSpaceOnUse">
      <path
         inkscape:connector-curvature="0"
         id="path4176-6"
         d="M 0,65.333 H 350 V 0 H 0 Z" />
    </clipPath>
    <marker
       inkscape:isstock="true"
       style="overflow:visible"
       id="TriangleInM"
       refX="0"
       refY="0"
       orient="auto"
       inkscape:stockid="TriangleInM">
      <path
         transform="scale(-0.4)"
         style="fill:#000000;fill-opacity:1;fill-rule:evenodd;stroke:#000000;stroke-width:1.00000003pt;stroke-opacity:1"
         d="M 5.77,0 -2.88,5 V -5 Z"
         id="path1051"
         inkscape:connector-curvature="0" />
    </marker>
    <marker
       inkscape:isstock="true"
       style="overflow:visible"
       id="Arrow2Sstart"
       refX="0"
       refY="0"
       orient="auto"
       inkscape:stockid="Arrow2Sstart">
      <path
         transform="matrix(0.3,0,0,0.3,-0.69,0)"
         d="M 8.7185878,4.0337352 -2.2072895,0.01601326 8.7185884,-4.0017078 c -1.7454984,2.3720609 -1.7354408,5.6174519 -6e-7,8.035443 z"
         style="fill:#000000;fill-opacity:1;fill-rule:evenodd;stroke:#000000;stroke-width:0.625;stroke-linejoin:round;stroke-opacity:1"
         id="path945"
         inkscape:connector-curvature="0" />
    </marker>
    <marker
       inkscape:isstock="true"
       style="overflow:visible"
       id="marker1199"
       refX="0"
       refY="0"
       orient="auto"
       inkscape:stockid="Arrow2Lstart">
      <path
         transform="matrix(1.1,0,0,1.1,1.1,0)"
         d="M 8.7185878,4.0337352 -2.2072895,0.01601326 8.7185884,-4.0017078 c -1.7454984,2.3720609 -1.7354408,5.6174519 -6e-7,8.035443 z"
         style="fill:#000000;fill-opacity:1;fill-rule:evenodd;stroke:#000000;stroke-width:0.625;stroke-linejoin:round;stroke-opacity:1"
         id="path1197"
         inkscape:connector-curvature="0" />
    </marker>
    <marker
       inkscape:isstock="true"
       style="overflow:visible"
       id="Arrow2Lstart"
       refX="0"
       refY="0"
       orient="auto"
       inkscape:stockid="Arrow2Lstart">
      <path
         transform="matrix(1.1,0,0,1.1,1.1,0)"
         d="M 8.7185878,4.0337352 -2.2072895,0.01601326 8.7185884,-4.0017078 c -1.7454984,2.3720609 -1.7354408,5.6174519 -6e-7,8.035443 z"
         style="fill:#000000;fill-opacity:1;fill-rule:evenodd;stroke:#000000;stroke-width:0.625;stroke-linejoin:round;stroke-opacity:1"
         id="path933"
         inkscape:connector-curvature="0" />
    </marker>
  </defs>
  <metadata
     id="metadata5">
    <rdf:RDF>
      <cc:Work
         rdf:about="">
        <dc:format>image/svg+xml</dc:format>
        <dc:type
           rdf:resource="http://purl.org/dc/dcmitype/StillImage" />
        <dc:title></dc:title>
      </cc:Work>
    </rdf:RDF>
  </metadata>
  <g
     transform="translate(0,-229.26667)"
     id="layer1"
     inkscape:groupmode="layer"
     inkscape:label="Zones"
     style="display:inline">
    <path
       style="color:#000000;font-style:normal;font-variant:normal;font-weight:normal;font-stretch:normal;font-size:medium;line-height:normal;font-family:sans-serif;font-variant-ligatures:normal;font-variant-position:normal;font-variant-caps:normal;font-variant-numeric:normal;font-variant-alternates:normal;font-feature-settings:normal;text-indent:0;text-align:start;text-decoration:none;text-decoration-line:none;text-decoration-style:solid;text-decoration-color:#000000;letter-spacing:normal;word-spacing:normal;text-transform:none;writing-mode:lr-tb;direction:ltr;text-orientation:mixed;dominant-baseline:auto;baseline-shift:baseline;text-anchor:start;white-space:normal;shape-padding:0;clip-rule:nonzero;display:inline;overflow:visible;visibility:visible;opacity:1;isolation:auto;mix-blend-mode:normal;color-interpolation:sRGB;color-interpolation-filters:linearRGB;solid-color:#000000;solid-opacity:1;vector-effect:none;fill:#102c38;fill-opacity:1;fill-rule:nonzero;stroke:none;stroke-width:7.9375;stroke-linecap:round;stroke-linejoin:round;stroke-miterlimit:4;stroke-dasharray:none;stroke-dashoffset:0;stroke-opacity:1;paint-order:stroke markers fill;color-rendering:auto;image-rendering:auto;shape-rendering:auto;text-rendering:auto;enable-background:accumulate"
       d="m 48.461977,238.29388 c -1.666798,-0.002 -3.156986,1.03848 -3.730469,2.60351 l -0.541015,1.47461 -3.033203,-0.46094 c -0.611417,-1.40266 -1.97466,-2.32896 -3.503907,-2.38085 l -6.248046,-0.20313 c -1.052635,-0.034 -2.075634,0.35172 -2.84375,1.07227 l -3.013672,2.82812 -1.509766,0.42188 c -0.764745,0.21369 -1.44782,0.65183 -1.960937,1.25781 l -0.41211,0.48437 -2.080078,0.31446 c -0.133437,0.0199 -0.26577,0.0467 -0.396484,0.0801 -0.843156,-0.38347 -1.822765,-0.85976 -2.351562,-1.11523 -0.03748,-0.0182 -0.07525,-0.0357 -0.113282,-0.0527 l -2.28125,-1.01368 c -0.7341,-0.3265 -1.55,-0.42252 -2.339844,-0.27539 l -4.3320315,0.80664 c -1.757255,0.32829 -3.078215,1.79078 -3.226562,3.57227 l -0.490235,5.86328 c -0.08227,1.00851 0.223735,2.01036 0.855469,2.80078 -0.45923,1.17908 -0.911765,2.33936 -1.347656,3.45899 -0.764796,0.78782 -1.618883,1.66767 -2.3125,2.38476 -1.46193899,1.51106 -1.49191799,3.9 -0.06836,5.44727 1.626508,1.76665 3.533203,3.76428 5.154296,5.50976 0.83362,2.1478 1.757469,4.54368 2.572266,6.63867 0.478923,1.23134 1.5391395,2.14365 2.8281255,2.4336 0.927877,0.20869 2.123473,0.58946 3.611328,0.8457 0.584931,0.10043 1.184939,0.0684 1.755859,-0.0937 l 2.03711,-0.57617 1.621094,3.34961 c 0.658462,1.35894 2.031,2.22652 3.541015,2.23828 l 9.390625,0.0742 c 1.027168,0.007 2.017102,-0.38422 2.761719,-1.0918 l 6.40039,1.17969 c 0.903411,0.16667 1.836665,0.0148 2.640625,-0.42969 l 5.882813,-3.25586 3.160156,0.70508 c 0.835527,0.18679 1.709054,0.0984 2.490235,-0.25195 l 2.701172,-1.21485 c 0.994258,-0.44632 1.761257,-1.28182 2.121093,-2.31054 l 2.644532,-7.57031 c 0.567591,-1.63088 0.01561,-3.4416 -1.365235,-4.47852 l 3.958985,-5.35938 c 1.564032,-2.11838 0.669481,-5.14466 -1.794922,-6.07226 l -0.90625,-0.3418 -0.398438,-1.40039 1.041016,-4.08984 c 0.390375,-1.53434 -0.168419,-3.15392 -1.421875,-4.1211 l -2.310547,-1.7832 c -0.273578,-1.05963 -0.972527,-1.95929 -1.931641,-2.48633 l -9.001953,-4.92773 c -0.583198,-0.31955 -1.237338,-0.48745 -1.902344,-0.48828 z"
       id="rect5787-3"
       inkscape:connector-curvature="0"
       sodipodi:nodetypes="cccccccccccccccccccccccccccccccccccccccccccccccccccccc" />
    <path
       style="opacity:1;fill:#81ec71;fill-opacity:1;stroke:#60b4b1;stroke-width:2.64583325;stroke-linecap:round;stroke-linejoin:round;stroke-miterlimit:4;stroke-dasharray:none;stroke-opacity:1;paint-order:stroke markers fill"
       d="m 683.02916,5.3311573 -1.58491,0.32969 -0.66405,0.45992 -4.20955,9.5032997 -0.31832,0.7059 -0.79065,1.67483 -0.0527,0.80306 0.49609,3.65042 0.56896,0.78031 25.18656,26.77925 -0.009,0.25528 -9.14775,10.20558 -0.0657,0.0667 -1.36165,1.27589 -0.22272,0.73639 3.27834,17.9927 0.35812,0.68885 10.61796,10.47223 -13.36458,28.634943 0.29663,0.71314 36.42775,14.32882 0.76896,-0.26715 7.25897,-15.90341 0.0321,-0.0439 18.05884,-16.24861 0.18449,-0.74776 -11.94501,-25.163323 -0.50694,-0.63717 -0.25167,-0.14521 -5.32164,-15.82281 4.59144,-11.78171 0.12351,-0.76171 -0.19172,-19.28977 -0.45939,-0.63407 -18.1038,-5.67511 -5.13252,-11.43599 -0.71416,-0.41393 -32.78302,-4.9971097 z m 0.23979,0.73897 v 5.3e-4 l 33.57676,5.1169997 5.06841,11.28872 -9.45057,8.26513 -35.14876,-14.796 4.21627,-9.5187997 1.70119,-0.3545 z m -6.27041,10.5797197 34.98183,14.72675 -9.99008,17.83147 -25.27494,-26.8733 -0.53588,-3.95014 z m 45.50418,6.36033 17.94774,5.62602 0.19431,19.53317 -0.003,0.007 -4.58007,11.75122 -33.58555,-9.787 0.005,-0.1633 10.38231,-18.5291 0.0279,-0.0336 z m -20.30572,27.84895 33.79121,9.84643 5.23018,15.55098 -4.95681,1.81643 -42.81805,-17.44855 z m -9.32656,10.36577 42.41083,17.28215 -27.43761,12.5982 -2.08462,0.13436 -10.78693,-10.64018 -3.32074,-18.23299 z m 48.81147,15.6838 0.2739,0.15762 12.02872,25.340053 -17.80926,16.02227 -27.53992,-26.834013 27.77868,-12.75581 z m -33.89146,14.96653 27.89132,27.177673 -7.09827,15.55048 -35.99108,-14.15677 13.27721,-28.448393 z"
       id="path817-2"
       inkscape:connector-curvature="0"
       sodipodi:nodetypes="cccccccccccccccccccccccccccccccccccccccccccccccccccccccccccccccccccccccccccccccccccccccccc" />
    <path
       style="opacity:1;fill:#81ec71;fill-opacity:1;stroke:none;stroke-width:2.64583325;stroke-linecap:round;stroke-linejoin:round;stroke-miterlimit:4;stroke-dasharray:none;stroke-opacity:1;paint-order:stroke markers fill"
       d="m 724.27255,-7.7389927 -0.85279,0.27016 -6.56031,17.8855597 -32.78293,-4.9968597 -1.04824,-0.0882 -1.58501,0.32996 -0.66397,0.45973 -4.20983,9.5034597 -27.15607,-10.1468297 -0.84747,0.0131 -6.79655,4.9930497 -8.40549,2.36611 -0.83594,0.38085 -5.08478,5.95408 -12.91717,1.98526 -0.80757,0.2498 -2.36421,1.51152 -2.64301,-1.67183 -22.37801,-9.72272 -18.11143,3.37675 -0.60368,0.52887 -2.00076,23.96518 0.0847,0.82829 0.60457,1.06791 0.48401,0.62302 4.43899,3.97815 -9.32299,23.95203 -11.86094,12.26357 -0.031,0.76509 21.76811,23.642863 0.69854,0.47755 0.12189,0.0217 11.22712,28.86789 0.58374,0.54286 13.78591,3.39542 0.82264,0.005 10.65535,-3.01669 0.0519,-0.007 9.59069,-0.0946 10.3278,21.40865 0.70164,0.39654 37.86637,0.299 0.80315,-0.28033 3.51883,-5.24752 33.29753,6.14027 0.81421,-0.10773 23.77287,-13.15546 0.79471,-0.55092 0.85723,-1.26343 19.59183,4.37342 0.82397,-0.13995 11.21338,-5.03588 0.48357,-0.66883 10.74797,-30.77808 -0.18038,-0.76552 -12.39461,-6.98297 25.32553,-34.531883 -0.10194,-0.77824 -11.86362,-4.46927 -4.34723,-15.35787 5.12865,-20.13335 -0.15912,-0.77613 -14.65731,-11.311 0.29608,-3.77628 0.009,-0.0364 -0.63205,-0.62726 z m -0.85279,0.27016 0.0386,-0.10476 -7.11036,2.34618 z m -7.0718,2.24142 -4.00417,1.26893 v 0.0522 z m 7.74729,-1.72231 37.05659,20.2877297 -0.28367,3.60662 -20.05812,10.99802 -18.1039,-5.67501 -5.13265,-11.43613 z m -121.65846,7.66790997 -0.12366,0.11578 0.12366,0.11578 0.12455,-0.11578 z m -21.78053,0.21841 -0.12411,0.11578003 0.12411,0.11579 0.12367,-0.11579 z M 683.26763,6.0704473 v 4.4e-4 l 33.57675,5.1168797 5.06838,11.28897 -9.45019,8.26505 -35.14891,-14.79635 4.21648,-9.5187197 1.70114,-0.35414 z m -34.26866,0.0768 27.25314,10.1828897 -0.79073,1.67481 -12.50098,3.05783 -20.25757,-10.29102 z m 87.19923,0.44108 -0.12411,0.11579 0.12411,0.11577 0.12411,-0.11577 z m 51.49493,3.5205397 -0.12365,0.11578 0.12365,0.11579 0.12457,-0.11579 z m -145.77748,1.13237 20.1707,10.24693 -18.08085,10.21087 -15.76894,-12.21564 4.93763,-5.78189 z m -54.77044,0.39655 20.41935,9.08783 z m 65.75201,0.35541 -0.12411,0.11577 0.12411,0.11579 0.12455,-0.11579 z m -66.25819,0.26591 21.53764,9.58573 2.68556,1.69941 -2.90186,7.44653 -8.17102,7.15982 -20.8648,8.06573 -7.03325,-0.77867 -4.70094,-4.21184 -0.003,-0.004 -0.78408,-1.38472 2.01982,-24.18233 z m 90.35816,4.39081 34.98181,14.72679 -9.99005,17.83128 -25.27454,-26.8733 -0.53587,-3.94974 z m 84.22379,0.98775 14.50528,11.19312 -5.09675,20.00569 -29.16835,-0.96952 -0.19148,-19.2898 z m -85.81189,1.17013 0.49597,3.65073 -11.41905,29.50406 -15.57169,2.23209 -4.48997,-21.83784 18.6052,-10.5069 0.0935,-0.0352 z m -47.86132,1.13576 16.04552,12.42939 4.5498,22.12921 -7.56025,7.11657 -4.03831,-1.77703 -27.76241,-28.72157 2.91339,-7.47918 2.57253,-1.6447 0.0519,-0.0203 z m 73.03568,0.54329 -0.11524,0.11535 0.1241,0.11621 0.12456,-0.11621 -0.12456,-0.11535 z m -151.31083,0.76 -0.12455,0.11578 0.12455,0.11578 0.12411,-0.11578 z m 173.2292,1.76344 17.94744,5.62582 0.19413,19.53366 -0.002,0.007 -4.57994,11.75124 -33.58562,-9.78719 0.005,-0.16328 10.38188,-18.52894 0.0279,-0.0335 z m -46.02809,0.2286 25.18678,26.77915 -0.009,0.25532 -9.14746,10.20535 -0.0656,0.067 -1.36161,1.27573 -9.5353,-1.84785 -0.004,-0.002 -16.24231,-7.85112 z m -90.89624,0.64508 -0.1241,0.11577 0.1241,0.11621 0.12455,-0.11621 z m 22.71088,7.86638 27.12237,28.06082 -24.82199,1.11201 -10.0858,-22.34974 z m 83.8497,3.69189 -0.12455,0.11577 0.12455,0.11579 0.12366,-0.11579 z m -92.34296,3.53325 10.05389,22.27723 -3.82423,4.37003 h -14.32711 l -12.11757,-18.83222 z m 30.9107,0.19679 -0.1241,0.11578 0.1241,0.11578 0.12411,-0.11578 z m 50.84163,2.47087 -0.12412,0.11577 0.12412,0.11579 0.1241,-0.11579 z m 77.33903,0.92668 -0.12411,0.11578 0.12411,0.11578 0.12455,-0.11578 z m -35.77121,0.30875 -0.12411,0.11578 0.12411,0.11578 0.12411,-0.11578 z m -151.1353,3.33816 6.75621,0.74771 12.29709,19.1121 -2.73653,13.37176 -25.51122,-9.60694 z m 212.90307,2.1108 -0.12454,0.11579 0.12454,0.11577 0.12411,-0.11577 z m -43.54553,0.3007 29.29468,0.9729 4.2546,15.03131 -32.56707,11.74572 -0.25176,-0.14504 -5.32191,-15.82312 z m -117.5878,1.44621 -0.12411,0.11578 0.12411,0.11579 0.1241,-0.11579 z m 78.44624,0.78461 33.79128,9.84655 5.23017,15.55127 -4.95669,1.81604 -42.81819,-17.44831 z m -87.57996,1.83597 -0.12411,0.1162 0.12411,0.11579 0.1241,-0.11579 z m 50.10318,0.008 16.04863,7.75867 -21.64934,25.1811 -12.71594,-8.99876 -5.44247,-11.62018 0.11391,-2.78132 7.70829,-7.2561 7.63249,-1.09378 -4.6e-4,0.01 0.12411,0.1162 0.12411,-0.1162 -0.009,-0.0437 z m -68.60555,0.86561 -0.12411,0.11579 0.12411,0.11578 0.1241,-0.11578 z m 40.09805,6.97195 4.03876,1.77702 -0.10461,2.57943 -24.23248,16.52842 -5.83341,-5.41843 -3.40316,-9.92121 3.84728,-4.39547 z m 45.35084,0.21799 9.29151,1.7995 3.27816,17.99286 -29.5247,12.28096 -4.90883,-6.64242 z m 11.3069,0.46694 42.41087,17.28206 -27.43753,12.59819 -2.08497,0.13444 -10.78655,-10.64007 -3.32116,-18.23291 z m 82.5045,4.05068 11.4864,4.32677 -25.25326,34.432643 -6.83555,-1.85675 -11.94517,-25.163303 z m -134.99716,0.41054 5.23105,11.17063 -14.86253,22.69073 -17.03481,-4.54476 2.5353,-12.85689 z m -48.57226,0.70023 h 14.11524 l 3.26886,9.53356 -20.08472,3.65838 z m 123.03028,1.19981 -0.12411,0.11578 0.12411,0.11578 0.12411,-0.11578 z m -65.79058,1.26936 -0.12455,0.1162 0.12455,0.11579 0.12411,-0.11579 z m -33.57409,0.4292 -0.12455,0.11578 0.12455,0.11578 0.12411,-0.11578 z m -53.09192,1.22652 25.84233,9.73248 -0.17109,18.8907 -15.20072,7.158563 -0.24112,-0.0428 -21.84656,-23.728113 z m 102.82589,0.52845 -0.12411,0.11577 0.12411,0.11579 0.12411,-0.11579 z m 48.01201,0 -0.1241,0.11577 0.1241,0.11579 0.1241,-0.11579 z m -112.41836,2.62057 -0.12411,0.11578 0.12411,0.11579 0.12411,-0.11579 z m 8.78756,2.96622 5.84492,5.42903 -2.55922,12.97904 -5.43805,3.02645 -13.66934,1.70323 -0.0106,-4.3e-4 h -4.5e-4 l -4.88311,-0.72015 0.16976,-18.67483 z m 132.09574,0.28204 0.27347,0.15777 12.02893,25.340183 -17.80914,16.02245 -27.53991,-26.834293 27.77837,-12.75595 z m -68.08254,0.40629 -0.12411,0.11579 0.12411,0.11578 0.12411,-0.11578 z m -27.41625,0.1319 12.68492,8.97841 0.0359,0.0348 5.14374,6.9605 -0.83195,13.960003 -23.8952,3.71562 -7.90153,-11.109133 z m 49.93698,2.54721 -0.12411,0.11578 0.12411,0.11579 0.1241,-0.11579 z m -1.62889,1.24518 10.61812,10.47255 -13.3644,28.634633 -11.71822,4.03329 -16.00208,-16.80833 0.83505,-14.006233 z m 75.49209,1.48058 -0.12457,0.11577 0.12457,0.11621 0.12409,-0.11621 z m -110.86749,1.64172 -0.12455,0.11579 0.12455,0.11577 0.1241,-0.11577 z m -30.56188,1.60144 -0.12411,0.11578 0.12411,0.11579 0.1241,-0.11579 z m 151.87995,3.42172 -0.12411,0.11578 0.12411,0.11578 0.12409,-0.11578 z m -72.64343,2.49083 27.89095,27.177393 -7.09795,15.55042 -35.99149,-14.15637 13.27752,-28.448453 z m -62.49291,3.62402 -0.12411,0.11578 0.12411,0.11579 0.12411,-0.11579 z m -31.99929,0.18831 17.37655,4.636373 7.97777,11.21559 -8.68163,15.83541 -7.05096,4.50702 -14.83416,-33.293483 z m 69.94057,1.77744 -0.12455,0.11578 0.12455,0.11578 0.12411,-0.11578 z m -75.92556,1.38303 14.95383,33.560243 -2.88766,3.54725 -9.4666,0.0933 -15.57569,-35.5841 z m -18.78869,0.91776 4.94073,0.729483 15.624,35.69479 -10.45634,2.95986 -14.00575,-3.45013 -11.20806,-28.81827 z m 139.91571,0.10137 -0.1241,0.11578 0.1241,0.115783 0.12456,-0.115783 z m 26.14772,3.058263 6.97606,1.89365 0.0904,0.0369 12.49477,7.0398 -10.81979,30.98166 -11.41239,5.12494 -19.71151,-4.40099 -2.96745,-8.47965 7.25884,-15.9037 0.0323,-0.0437 z m -209.29605,1.9649 -0.1241,0.11578 0.1241,0.11535 0.12411,-0.11535 z m 213.12692,0.21799 -0.12454,0.11621 0.12454,0.11577 0.12411,-0.11577 z m -94.96823,3.01033 15.98214,16.78798 -6.94637,16.32568 -41.62013,-13.81114 8.53137,-15.56102 z m -62.65203,0.26549 -0.12411,0.11579 0.12411,0.1162 0.12411,-0.1162 z m 20.21989,2.13243 -0.1241,0.11578 0.1241,0.11579 0.12455,-0.11579 z m 95.14198,0.30875 -0.1241,0.11578 0.1241,0.11579 0.12411,-0.11579 z m -108.80422,4.98457 -0.12411,0.11578 0.12411,0.11578 0.1241,-0.11578 z m -27.63609,4.3679 -0.12411,0.11579 0.12411,0.11536 0.1241,-0.11536 z m 16.15987,0 -0.12366,0.11579 0.12366,0.11536 0.12455,-0.11536 z m 96.16141,0.88173 36.42765,14.32898 2.96789,8.4822 -0.92902,1.36733 -24.35571,13.47821 -33.38927,-6.15849 0.36522,-10.74441 0.008,-0.0378 7.08332,-16.64802 z m -41.54477,3.50951 -0.12367,0.11578 0.12367,0.11578 0.1241,-0.11578 z m 105.74104,2.16212 -0.12411,0.11577 0.12411,0.11579 0.1241,-0.11579 z m -125.89003,1.32873 41.95433,13.92226 -0.36567,10.77239 -3.55872,5.30646 -38.00645,-0.29984 -10.31272,-21.37599 2.93465,-3.60663 0.0629,-0.0564 z m -65.71876,2.68631 -0.12411,0.11578 0.12411,0.11579 0.12455,-0.11579 z m 10.17311,0.78758 -0.12455,0.11577 0.12455,0.11579 0.1241,-0.11579 z m 27.63565,0.21798 -0.12366,0.11622 0.12366,0.11577 0.12455,-0.11577 z m 177.52768,2.18417 -0.12412,0.11621 0.12412,0.11536 0.12454,-0.11536 z m -136.00994,7.77436 -0.12412,0.11578 0.12412,0.11579 0.1241,-0.11579 z m 57.46619,1.69857 -0.12455,0.11577 0.12455,0.11579 0.12411,-0.11579 z m -115.37827,11.49295 -0.12367,0.11578 0.12367,0.11579 0.12454,-0.11579 z m 186.66184,3.71223 -0.12411,0.11621 0.12411,0.11578 0.12411,-0.11578 z m -27.40206,10.70115 -0.12411,0.1162 0.12411,0.11579 0.12454,-0.11579 z m -26.69954,1.09208 -0.12411,0.11578 0.12411,0.11578 0.12455,-0.11578 z m -23.18602,1.3105 -0.12411,0.11578 0.12411,0.11578 0.12411,-0.11578 z m -51.75956,2.83899 -0.1241,0.11578 0.1241,0.11578 0.12455,-0.11578 z"
       id="path817"
       inkscape:connector-curvature="0"
       sodipodi:nodetypes="ccccccccccccccccccccccccccccccccccccccccccccccccccccccccccccccccccccccccccccccccccccccccccccccccccccccccccccccccccccccccccccccccccccccccccccccccccccccccccccccccccccccccccccccccccccccccccccccccccccccccccccccccccccccccccccccccccccccccccccccccccccccccccccccccccccccccccccccccccccccccccccccccccccccccccccccccccccccccccccccccccccccccccccccccccccccccccccccccccccccccccccccccccccccccccccccccccccccccccccccccccccccccccccccccccccccccccccccccccccccccccccccccccccccccccccccccccccccccccccccccccccccccccccccccccccccccccccccccccccccccccccccccccccccccccccccccccccccccccccccccccccccccccccccccccccccccccccccccccccccccccccccccccccccccccccc" />
    <path
       style="opacity:1;fill:#81ec71;fill-opacity:1;stroke:#000000;stroke-width:2.64583325;stroke-linecap:round;stroke-linejoin:round;stroke-miterlimit:4;stroke-dasharray:none;stroke-opacity:1;paint-order:stroke markers fill"
       d="m 586.33338,11.536747 -18.11156,3.37706 -0.60358,0.52865 -2.00091,23.96546 0.0847,0.82786 0.60461,1.06815 0.48421,0.62322 4.43901,3.97805 -9.32295,23.95203 -11.86129,12.26333 -0.031,0.76533 21.76818,23.643003 0.69867,0.47749 0.12195,0.0217 11.22723,28.86749 0.58342,0.54312 13.78624,3.39515 0.82269,0.005 10.65516,-3.01635 0.0517,-0.007 0.18242,-0.76584 -15.57579,-35.58439 -0.57258,-0.700733 -0.0109,-5.3e-4 h -5.3e-4 l -4.88291,-0.71986 0.1695,-18.67482 0.0651,-0.79065 2.70061,-13.19196 -0.10697,-0.7643 -12.1176,-18.83192 20.21478,-7.81503 0.70797,-0.40204 7.78557,-6.82336 0.49351,-0.62993 2.91352,-7.47913 -0.34106,-0.70953 -2.64325,-1.67173 z m 0.81183,0.10077 20.41943,9.08782 z m -0.50591,0.62116 21.53771,9.58597 2.68562,1.69912 -2.90215,7.44658 -8.17108,7.15977 -20.86487,8.06617 -7.03316,-0.77876 -4.70101,-4.21215 -0.003,-0.004 -0.78393,-1.38493 2.01951,-24.1825 z m -14.65905,33.95761 6.75617,0.74776 12.29693,19.11201 -2.73627,13.3718 -25.5111,-9.60665 z m -9.602,24.29516 25.84235,9.73274 -0.17105,18.89032 -15.20062,7.158733 -0.24133,-0.0429 -21.84621,-23.727753 z m 26.14569,29.25506 4.94079,0.729163 15.62385,35.69497 -10.45621,2.96003 -14.00587,-3.45044 -11.2081,-28.81839 z"
       id="path817-6"
       inkscape:connector-curvature="0"
       sodipodi:nodetypes="cccccccccccccccccccccccccccccccccccccccccccccccccccccccccccccccccccccccccc" />
    <path
       style="opacity:1;fill:#81ec71;fill-opacity:1;stroke:#000000;stroke-width:2.64583325;stroke-linecap:round;stroke-linejoin:round;stroke-miterlimit:4;stroke-dasharray:none;stroke-opacity:1;paint-order:stroke markers fill"
       d="m 724.27258,-7.7389627 -0.85267,0.27027 -6.56032,17.8857297 -0.0151,0.77101 5.06844,11.28872 0.58909,0.53382 17.94725,5.62549 0.19431,19.5337 -0.003,0.007 -4.58007,11.75122 -0.0755,0.77773 5.23018,15.55099 0.46405,0.65216 0.27337,0.15813 12.02873,25.340053 -17.80924,16.02228 -7.70599,16.95969 2.96778,8.48217 0.6387,0.48885 19.59211,4.37338 0.8237,-0.14004 11.21381,-5.03587 0.48315,-0.66869 10.7482,-30.77797 -0.18037,-0.76584 -12.39459,-6.98304 25.3256,-34.531743 -0.10181,-0.77825 -11.86387,-4.46898 -4.34702,-15.35823 5.12836,-20.13314 -0.15917,-0.77618 -14.65696,-11.31094 0.29609,-3.77651 0.009,-0.0362 -0.63201,-0.62736 z m -0.85267,0.27027 0.0388,-0.1049 z m 0.6754,0.51935 37.05667,20.2876497 -0.28371,3.6065 -20.0582,10.99778 -18.10382,-5.67459 -5.13249,-11.43651 z m 37.12591,24.5871297 14.50507,11.19311 -5.09686,20.0055 -29.16824,-0.96945 -0.19122,-19.28978 z m -19.88354,30.99036 29.29485,0.97306 4.25453,15.03113 -32.56701,11.74605 -0.25217,-0.14521 -5.32165,-15.82281 z m 34.03616,16.64807 11.48664,4.32687 -25.25323,34.432533 -6.83578,-1.85674 -11.94498,-25.163323 z m -20.78683,37.649903 6.97632,1.89394 0.0904,0.0367 12.49484,7.03987 -10.82003,30.98158 -11.41222,5.12526 -19.71145,-4.40128 -2.96778,-8.47958 7.259,-15.90343 0.0325,-0.0439 z"
       id="path817-1"
       inkscape:connector-curvature="0"
       sodipodi:nodetypes="ccccccccccccccccccccccccccccccccccccccccccccccccccccccccccccccccccccccccccccc" />
    <path
       style="opacity:1;fill:#81ec71;fill-opacity:1;stroke:#a74b4b;stroke-width:2.64583325;stroke-linecap:round;stroke-linejoin:round;stroke-miterlimit:4;stroke-dasharray:none;stroke-opacity:1;paint-order:stroke markers fill"
       d="m 630.7452,99.548177 -17.03512,-4.54494 -0.83923,0.032 -5.4379,3.02669 -13.66946,1.70273 -0.0109,-5.2e-4 v 0 l -0.28784,0.731733 15.62386,35.69498 0.58962,0.632 0.0522,-0.007 9.59065,-0.0946 10.32753,21.40852 0.70176,0.39687 37.86642,0.29869 0.80304,-0.28008 3.51867,-5.24775 33.2977,6.1402 0.81442,-0.10749 23.7727,-13.15527 0.79478,-0.55087 0.85733,-1.26349 0.88313,-0.62787 -0.75343,-0.13022 -2.96778,-8.47959 -0.65473,-0.51883 -35.99109,-14.15624 -0.84698,-0.10077 -11.71866,4.03334 -16.00161,-16.80827 -0.80925,-0.19069 -23.89518,3.71554 -7.90133,-11.109403 z m 102.21288,44.184383 z m -119.66091,-48.044093 17.37673,4.636413 7.97782,11.21533 -8.68164,15.83573 -7.05125,4.5067 -14.83424,-33.293063 z m -5.98516,3.16053 14.95414,33.560223 -2.88769,3.54707 -9.4666,0.0935 -15.57579,-35.58439 z m 56.13768,9.270753 15.98197,16.7876 -6.94635,16.32562 -41.6202,-13.81104 8.53125,-15.56081 z m 28.5905,12.94081 36.42773,14.32884 2.96777,8.48217 -0.9286,1.36736 -24.35614,13.47825 -33.38918,-6.1588 0.36534,-10.74405 0.008,-0.0377 7.0833,-16.64808 z m -61.6934,7.00009 41.95403,13.92215 -0.36537,10.77247 -3.55893,5.30665 -38.00647,-0.29972 -10.31256,-21.37596 2.93471,-3.60701 0.0625,-0.0563 z"
       id="path817-60"
       inkscape:connector-curvature="0"
       sodipodi:nodetypes="cccccccccccccccccccccccccccccccccccccccccccccccccccccccccccccccccccccccccc" />
    <path
       style="opacity:1;fill:#81ec71;fill-opacity:1;stroke:#90a74b;stroke-width:2.64583325;stroke-linecap:round;stroke-linejoin:round;stroke-miterlimit:4;stroke-dasharray:none;stroke-opacity:1;paint-order:stroke markers fill"
       d="m 649.41342,5.4781973 -0.84749,0.0129 -6.79649,4.9929797 -8.40517,2.36626 -0.83614,0.38086 -5.08495,5.95416 -12.91703,1.98489 -0.80772,0.25011 -2.36418,1.51154 -0.49197,0.61237 -2.90163,7.44657 -8.17108,7.15977 -20.86488,8.06566 -0.18809,0.74827 12.29693,19.11201 -2.7368,13.3718 -0.076,0.79581 -0.17105,18.89084 0.4744,0.63149 4.94027,0.729673 0.87228,-0.0305 12.97596,-1.616963 0.77256,-0.25941 5.21261,-2.90112 17.37618,4.636413 0.74414,-0.336933 15.19881,-23.10817 -5.65674,-11.85559 0.11419,-2.78122 7.70806,-7.25641 0.13229,-0.79168 -4.49016,-21.83794 18.60507,-10.50686 0.0935,-0.0351 12.28609,-3.00705 0.76946,-0.42271 0.81854,-1.73478 0.31679,-0.70486 -0.74414,-0.3204 z m -0.41445,0.66921 27.25312,10.1828397 -0.79066,1.67484 -12.50103,3.05769 -20.25716,-10.29084 z m -7.08329,5.0937497 20.17085,10.24692 -18.08106,10.21126 -15.76854,-12.21579 4.93768,-5.78208 z m -14.36759,8.70231 16.04552,12.42973 4.54959,22.12888 -7.56025,7.11688 -4.03799,-1.77715 -27.76265,-28.72176 2.91351,-7.47913 2.57247,-1.64486 0.0517,-0.0202 z m -19.25928,11.80703 27.12235,28.06082 -24.82225,1.11208 -10.08568,-22.35006 z m -8.49355,7.22488 10.05417,22.2772 -3.82458,4.37027 h -14.32676 l -12.11763,-18.83244 z m 36.41637,21.5651 4.03903,1.77715 -0.10438,2.57968 -24.23263,16.52819 -5.83374,-5.41827 -3.40289,-9.92136 3.84731,-4.39559 z m 4.16513,5.14645 5.23121,11.17038 -14.86265,22.6906 -17.03464,-4.54442 2.53526,-12.8571 z m -48.57223,0.70022 h 14.11541 l 3.26906,9.53326 -20.08508,3.6587 z m 17.78082,10.2402 5.84512,5.42861 -2.55953,12.97905 -5.4379,3.02669 -13.66946,1.70325 -0.0103,-5.2e-4 -4.88344,-0.72037 0.17002,-18.67483 z"
       id="path817-3"
       inkscape:connector-curvature="0"
       sodipodi:nodetypes="ccccccccccccccccccccccccccccccccccccccccccccccccccccccccccccccccccccccccccccccccccccccccccccccccccccc" />
    <path
       style="opacity:1;fill:#81ec71;fill-opacity:1;stroke:#5a4ba7;stroke-width:2.64583325;stroke-linecap:round;stroke-linejoin:round;stroke-miterlimit:4;stroke-dasharray:none;stroke-opacity:1;paint-order:stroke markers fill"
       d="m 675.46114,18.004887 -12.50106,3.0577 -0.87384,0.42529 -18.08107,10.21075 -0.41185,0.67438 4.54959,22.12888 -7.56026,7.11688 -0.33229,0.69866 -0.10438,2.57917 0.23048,0.79013 5.23121,11.17038 -14.86268,22.69061 -0.0713,0.776693 7.97779,11.21586 0.74518,0.32039 24.05279,-3.74137 15.9825,16.78812 0.78653,0.22066 11.822,-4.06797 0.55036,-0.61288 13.27775,-28.448403 -0.11113,-0.75861 -10.7864,-10.64018 -3.32126,-18.23299 1.21957,-1.14153 0.57309,-0.601 8.75347,-9.76581 0.27956,-0.7183 0.005,-0.1633 -0.49196,-0.76946 -25.27443,-26.8733 -0.53589,-3.94963 z m -0.0522,0.80254 0.49609,3.65094 -11.41894,29.50414 -15.57166,2.2319 -4.49016,-21.83794 18.60508,-10.50685 0.0935,-0.0351 z m 1.06455,4.43125 25.18709,26.77924 -0.009,0.25529 -9.14723,10.20506 -0.0657,0.0672 -1.36167,1.27589 -9.53532,-1.84795 -0.004,-0.002 -16.24189,-7.8512 z m -11.75433,29.46435 16.04862,7.7587 -21.64932,25.18089 -12.71601,-8.99893 -5.44258,-11.61996 0.11422,-2.78123 7.70805,-7.2564 z m 16.8434,8.05532 9.29143,1.79938 3.27834,17.99321 -29.5248,12.28091 -4.90873,-6.64249 z m -35.38027,16.68891 12.68503,8.97826 0.0357,0.0346 5.14387,6.96082 -0.832,13.959873 -23.89519,3.71553 -7.90183,-11.108883 z m 48.30818,3.79201 10.61794,10.47275 -13.36455,28.634433 -11.71816,4.03334 -16.0021,-16.80827 0.83507,-14.005873 z"
       id="path817-7"
       inkscape:connector-curvature="0"
       sodipodi:nodetypes="cccccccccccccccccccccccccccccccccccccccccccccccccccccccccccccccccccccccccccccccc" />
    <g
       id="g7591"
       transform="matrix(0.21239743,0,0,0.21239743,2.1667208,222.449)"
       style="stroke:none;stroke-width:4.7087431;stroke-miterlimit:4;stroke-dasharray:none;stroke-opacity:1">
      <path
         inkscape:connector-curvature="0"
         id="rect5787"
         transform="matrix(0.26458333,0,0,0.26458333,0,87)"
         d="m 187.38281,109.79688 -77.07226,14.36328 -8.70508,104.34179 21.54883,21.21289 31.15234,2.28125 c 30.53551,-12.11164 61.67278,-23.22744 91.83203,-35.96093 l 35.03321,-31.45704 10.48828,-26.92187 C 271.58614,145.56108 249.05875,138.0482 227.96484,127.85742 Z m -1.23047,10.20507 c 31.07639,13.85462 62.19556,27.6278 93.24414,41.53321 l -7.82812,17.99609 -31.22852,27.77344 -88.18945,33.40039 -25.75391,-1.74414 -14.71289,-15.36524 7.88086,-91.19531 c 22.19577,-4.13329 44.39213,-8.26522 66.58789,-12.39844 z M 124.91602,265.625 c -12.64806,32.50559 -29.102996,74.70557 -41.804692,107.34766 -15.388152,15.89989 -35.927184,36.95063 -51.044922,52.58007 30.960034,33.62771 69.544914,73.84222 100.634764,107.58204 16.01428,41.17925 34.71565,89.72771 50.70899,130.84961 20.25346,4.55527 40.53637,10.85286 60.77148,14.33789 L 282.6582,667.42773 215.19531,513.3125 c -5.41991,-0.79919 -19.5287,-2.73601 -26.27539,-3.70703 l 0.35352,-99.07422 v -0.004 c 3.60928,-17.39989 9.22267,-42.95021 12.55664,-59.23046 L 148.37695,268.2207 c -7.82035,-0.86509 -15.64058,-1.7306 -23.46093,-2.5957 z"
         style="opacity:1;fill:url(#linearGradient6196);fill-opacity:1;stroke:none;stroke-width:17.79682541;stroke-linecap:round;stroke-linejoin:round;stroke-miterlimit:4;stroke-dasharray:none;stroke-opacity:1;paint-order:stroke markers fill" />
      <path
         inkscape:connector-curvature="0"
         id="rect5787-7"
         transform="matrix(0.26458333,0,0,0.26458333,0,87)"
         d="m 589.15625,141.07227 -49.20508,12.05468 -80.83984,45.65235 5.1875,25.22851 16.10937,77.17578 -0.0918,0.0176 -37.42969,34.13086 -0.35742,8.77344 26.85351,58.60547 -69.34961,102.71875 31.62891,44.47461 109.06836,-17.16992 76.39258,77.60351 47.57812,-16.375 58.33985,-125.00781 -48.94922,-48.61524 -8.96875,-51.96289 -5.3086,-29.15234 -43.83984,-6.22852 -80.71094,-41.55468 55.05469,-141.84571 -0.63477,-4.66211 z m 12.16211,23.98632 -45.73242,118.15039 69.39648,33.54297 -0.6543,-0.33007 39.83204,7.7207 3.89648,-3.65039 0.11524,-0.11719 30.23242,-33.7207 8.42773,-9.40625 z m 2.84961,18.22266 88.4375,94.0332 -2.33399,2.60547 -29.93554,33.39258 h -0.008 l -33.63671,-6.51953 -59.25,-28.64063 z"
         style="opacity:1;fill:url(#linearGradient6172);fill-opacity:1;stroke:none;stroke-width:17.79682541;stroke-linecap:round;stroke-linejoin:round;stroke-miterlimit:4;stroke-dasharray:none;stroke-opacity:1;paint-order:stroke markers fill" />
      <path
         inkscape:connector-curvature="0"
         id="rect5787-7-1"
         transform="matrix(0.26458333,0,0,0.26458333,0,87)"
         d="m 310.83984,492.9082 -23.99218,13.43946 -54.87305,6.98242 34.70508,79.28906 31.80078,72.64648 45.59961,0.35157 48.01367,99.20312 167.11133,1.32422 13.52344,-20.17187 2.71679,-53.32813 30.49414,-71.04101 -68.29101,-71.73633 -114.33789,16.40039 -26.875,-38.61719 -10.44922,-14.68555 z m 359.88282,116.23633 -49.51758,17.03125 -30.99024,72.83789 -1.45898,42.98438 145.71484,26.87695 108.44336,-60.00391 1.72071,-2.53711 -11.68165,-33.3789 z m 0.17578,10.50977 154.57422,60.79882 7.86328,22.48243 -100.16211,55.42773 -133.78125,-24.67773 1.10156,-32.57032 28.53125,-67.0625 z"
         style="opacity:1;fill:url(#linearGradient6180);fill-opacity:1;stroke:none;stroke-width:17.79682541;stroke-linecap:round;stroke-linejoin:round;stroke-miterlimit:4;stroke-dasharray:none;stroke-opacity:1;paint-order:stroke markers fill" />
      <path
         inkscape:connector-curvature="0"
         id="rect5787-7-5-4"
         transform="matrix(0.26458333,0,0,0.26458333,0,87)"
         d="m 821.39453,21.410156 -26.60547,72.546875 13.58203,30.265629 7.8086,17.39062 77.88867,24.41797 86.77148,-47.57227 0.73243,-9.3496 z m 166.2832,111.191404 -84.75976,46.46289 0.12109,12.23243 0.66797,66.72851 122.97067,4.08008 21.168,-83.07617 z m -0.91796,13.13086 49.83203,38.45899 -17.5801,68.98828 -105.45506,-3.49414 -0.57226,-57.20508 -0.0586,-6.27735 z m -85.53516,127.84766 -18.68359,47.92969 24.78515,72.01171 0.25977,-0.084 -0.22266,0.0742 59.66602,123.00195 -87.03125,77.86328 -31.7793,69.62696 11.61523,33.1914 c 0.53277,0.10054 1.04986,0.27219 1.53711,0.50977 l 83.58985,18.66992 48.07617,-21.59375 47.04879,-134.70898 -61.72067,-34.33789 117.74417,-159.39063 -49.4278,-18.58398 -19.9394,-70.01758 z"
         style="opacity:1;fill:url(#linearGradient6156);fill-opacity:1;stroke:none;stroke-width:17.79682541;stroke-linecap:round;stroke-linejoin:round;stroke-miterlimit:4;stroke-dasharray:none;stroke-opacity:1;paint-order:stroke markers fill" />
      <path
         inkscape:connector-curvature="0"
         id="rect5787-7-9"
         transform="matrix(0.26458333,0,0,0.26458333,0,87)"
         d="m 629.1875,77.097656 -3.75781,0.789063 -15.54102,35.076171 -0.0195,0.041 -6.99023,15.33789 1.95117,14.39258 120.51172,128.60742 -4.53125,8.23242 -34.8125,38.98047 h -0.002 l -11.91601,12.52148 14.28515,78.40625 46.12305,45.49805 5.7207,-0.36719 132.84375,-60.42773 -0.23046,-0.0937 14.18359,-5.20118 -23.04688,-64.6582 17.72461,-50.57031 4.64258,-11.91016 -0.38476,0.88672 -0.8418,-83.82031 -84.03125,-26.79883 -22.29297,-52.128905 z m 144.56445,275.730464 0.56836,0.53126 -0.56836,0.52929 -0.56836,-0.52929 z m -7.41601,15.82422 0.56836,0.53125 -0.56836,0.5293 -0.56836,-0.5293 z m 128.08984,34.20118 -19.48437,7.13867 -119.03516,54.66406 115.78906,112.82617 68.91602,-61.99219 5.10351,-4.58984 z m -5.08789,12.45898 44.21484,93.15039 -61.58007,55.4043 -98.73633,-96.22071 105.50781,-48.45117 z m -150.1582,55.02734 -2.53516,0.16016 -56.58789,121.25781 153.56445,60.40625 28.36914,-62.14453 z"
         style="opacity:1;fill:url(#linearGradient6164);fill-opacity:1;stroke:none;stroke-width:17.79682541;stroke-linecap:round;stroke-linejoin:round;stroke-miterlimit:4;stroke-dasharray:none;stroke-opacity:1;paint-order:stroke markers fill" />
      <path
         inkscape:connector-curvature="0"
         id="rect5787-7-4-2"
         transform="matrix(0.26458333,0,0,0.26458333,0,87)"
         d="m 515.6582,39.763672 -66.27148,62.175778 -43.55469,12.16211 -24.4668,28.89063 -63.27539,9.50195 -9.16211,5.85156 -14.01171,35.03711 -24.51563,21.89844 -15.93359,15.08984 -88.5,32.98047 49.71093,77.26172 68.53125,0.49024 17.6211,49.74218 29.0918,26.78321 -10.64649,59.27343 68.33789,18.23047 63.84375,-97.47851 -24.30078,-51.91992 0.33789,-16.03126 8.79102,-10.57421 27.0957,-25.51172 -21.22266,-103.92383 94.35742,-53.1543 31.42188,-7.63867 21.27344,-5.20703 36.60937,-80.328126 z m -297.85156,316.474608 -12.38867,56.44922 0.0996,81.90039 16.34961,2.40625 60.67773,-7.55273 21.43164,-11.93164 10.53516,-53.39844 -27.95313,-26.01953 -13.35742,-41.85352 z m 7.9082,11.11524 h 40.04688 l 11.13281,34.89453 c 0.52224,1.63656 1.45722,3.11102 2.71485,4.28125 l 23.87304,22.22656 -8.55469,43.39062 -15.68554,8.73438 -57.40235,7.13672 -6.46679,-0.95117 -0.0879,-72.17969 z"
         style="opacity:1;fill:url(#linearGradient6188);fill-opacity:1;stroke:none;stroke-width:17.79682541;stroke-linecap:round;stroke-linejoin:round;stroke-miterlimit:4;stroke-dasharray:none;stroke-opacity:1;paint-order:stroke markers fill" />
    </g>
  </g>
  <style
     id="style3"
     type="text/css">
	.st0{fill:#00B1E3;}
	.st1{fill:#312E2E;}
</style>
  <style
     id="style3-6"
     type="text/css">
	.st0{fill:#00B1E3;}
	.st1{fill:#312E2E;}
</style>
</svg>
