<?xml version="1.0" encoding="UTF-8" standalone="no"?>
<!-- Generator: Adobe Illustrator 24.1.2, SVG Export Plug-In . SVG Version: 6.00 Build 0)  -->

<svg
   xmlns:dc="http://purl.org/dc/elements/1.1/"
   xmlns:cc="http://creativecommons.org/ns#"
   xmlns:rdf="http://www.w3.org/1999/02/22-rdf-syntax-ns#"
   xmlns:svg="http://www.w3.org/2000/svg"
   xmlns="http://www.w3.org/2000/svg"
   xmlns:sodipodi="http://sodipodi.sourceforge.net/DTD/sodipodi-0.dtd"
   xmlns:inkscape="http://www.inkscape.org/namespaces/inkscape"
   version="1.1"
   id="svg8"
   x="0px"
   y="0px"
   viewBox="0 0 128 128"
   style="enable-background:new 0 0 128 128;"
   xml:space="preserve"
   sodipodi:docname="cloudmarque.svg"
   inkscape:version="0.92.3 (2405546, 2018-03-11)"><metadata
   id="metadata48"><rdf:RDF><cc:Work
       rdf:about=""><dc:format>image/svg+xml</dc:format><dc:type
         rdf:resource="http://purl.org/dc/dcmitype/StillImage" /><dc:title></dc:title></cc:Work></rdf:RDF></metadata><defs
   id="defs46"><linearGradient
   id="linearGradient11742"
   gradientUnits="userSpaceOnUse"
   x1="122.72"
   y1="51.710999"
   x2="63.434299"
   y2="25.0096"
   gradientTransform="matrix(1,0,0,-1,-0.00128396,127.9616)"><stop
     offset="0"
     style="stop-color:#CFE4F4"
     id="stop6-2" /><stop
     offset="1"
     style="stop-color:#67BCE7"
     id="stop8-9" /></linearGradient><linearGradient
   id="linearGradient11746"
   gradientUnits="userSpaceOnUse"
   x1="-169.21519"
   y1="104.6585"
   x2="-154.798"
   y2="104.6585"
   gradientTransform="matrix(3.7795,0,0,-3.7795,647.6286,481.2064)"><stop
     offset="0"
     style="stop-color:#9BCDED"
     id="stop12-3" /><stop
     offset="1"
     style="stop-color:#3493BA"
     id="stop14-1" /></linearGradient><linearGradient
   id="linearGradient11750"
   gradientUnits="userSpaceOnUse"
   x1="-155.4838"
   y1="99.984901"
   x2="-167.0898"
   y2="110.6037"
   gradientTransform="matrix(3.7795,0,0,-3.7795,647.6286,481.2064)"><stop
     offset="0"
     style="stop-color:#936BAC"
     id="stop18-3" /><stop
     offset="1"
     style="stop-color:#D9CFE2"
     id="stop20-7" /></linearGradient><linearGradient
   id="linearGradient11754"
   gradientUnits="userSpaceOnUse"
   x1="-157.8105"
   y1="99.920197"
   x2="-162.299"
   y2="117.3543"
   gradientTransform="matrix(3.7795,0,0,-3.7795,647.6286,481.2064)"><stop
     offset="0"
     style="stop-color:#FAC494"
     id="stop24-1" /><stop
     offset="1"
     style="stop-color:#F7AC52"
     id="stop26-4" /></linearGradient><linearGradient
   id="linearGradient11758"
   gradientUnits="userSpaceOnUse"
   x1="-150.9015"
   y1="118.8798"
   x2="-155.20171"
   y2="100.7766"
   gradientTransform="matrix(3.7795,0,0,-3.7795,647.6286,481.2064)"><stop
     offset="0"
     style="stop-color:#FED540"
     id="stop30-6" /><stop
     offset="1"
     style="stop-color:#CDAA0B"
     id="stop32-1" /></linearGradient><linearGradient
   id="linearGradient11762"
   gradientUnits="userSpaceOnUse"
   x1="-142.3653"
   y1="114.1848"
   x2="-155.3109"
   y2="101.1918"
   gradientTransform="matrix(3.7795,0,0,-3.7795,647.6286,481.2064)"><stop
     offset="0"
     style="stop-color:#8BC15B"
     id="stop36-9" /><stop
     offset="1"
     style="stop-color:#AFD395"
     id="stop38-2" /></linearGradient><linearGradient
   gradientTransform="matrix(1,0,0,-1,-0.00128396,127.9616)"
   y2="25.0096"
   x2="63.434299"
   y1="51.710999"
   x1="122.72"
   gradientUnits="userSpaceOnUse"
   id="linearGradient11651"><stop
     id="stop11647"
     style="stop-color:#CFE4F4"
     offset="0" /><stop
     id="stop11649"
     style="stop-color:#67BCE7"
     offset="1" /></linearGradient><linearGradient
   gradientTransform="matrix(3.7795,0,0,-3.7795,647.6286,481.2064)"
   y2="104.6585"
   x2="-154.798"
   y1="104.6585"
   x1="-169.21519"
   gradientUnits="userSpaceOnUse"
   id="linearGradient11658"><stop
     id="stop11654"
     style="stop-color:#9BCDED"
     offset="0" /><stop
     id="stop11656"
     style="stop-color:#3493BA"
     offset="1" /></linearGradient><linearGradient
   gradientTransform="matrix(3.7795,0,0,-3.7795,647.6286,481.2064)"
   y2="110.6037"
   x2="-167.0898"
   y1="99.984901"
   x1="-155.4838"
   gradientUnits="userSpaceOnUse"
   id="linearGradient11665"><stop
     id="stop11661"
     style="stop-color:#936BAC"
     offset="0" /><stop
     id="stop11663"
     style="stop-color:#D9CFE2"
     offset="1" /></linearGradient><linearGradient
   gradientTransform="matrix(3.7795,0,0,-3.7795,647.6286,481.2064)"
   y2="117.3543"
   x2="-162.299"
   y1="99.920197"
   x1="-157.8105"
   gradientUnits="userSpaceOnUse"
   id="linearGradient11672"><stop
     id="stop11668"
     style="stop-color:#FAC494"
     offset="0" /><stop
     id="stop11670"
     style="stop-color:#F7AC52"
     offset="1" /></linearGradient><linearGradient
   gradientTransform="matrix(3.7795,0,0,-3.7795,647.6286,481.2064)"
   y2="100.7766"
   x2="-155.20171"
   y1="118.8798"
   x1="-150.9015"
   gradientUnits="userSpaceOnUse"
   id="linearGradient11679"><stop
     id="stop11675"
     style="stop-color:#FED540"
     offset="0" /><stop
     id="stop11677"
     style="stop-color:#CDAA0B"
     offset="1" /></linearGradient><linearGradient
   gradientTransform="matrix(3.7795,0,0,-3.7795,647.6286,481.2064)"
   y2="101.1918"
   x2="-155.3109"
   y1="114.1848"
   x1="-142.3653"
   gradientUnits="userSpaceOnUse"
   id="linearGradient11686"><stop
     id="stop11682"
     style="stop-color:#8BC15B"
     offset="0" /><stop
     id="stop11684"
     style="stop-color:#AFD395"
     offset="1" /></linearGradient>
	
	
		<linearGradient
   gradientTransform="matrix(1,0,0,-1,-0.00128396,127.9616)"
   y2="25.0096"
   x2="63.434299"
   y1="51.710999"
   x1="122.72"
   gradientUnits="userSpaceOnUse"
   id="path815-6-9-1-5-4-8_1_">
		<stop
   id="stop6"
   style="stop-color:#CFE4F4"
   offset="0" />
		<stop
   id="stop8"
   style="stop-color:#67BCE7"
   offset="1" />
	</linearGradient>
	
	
		<linearGradient
   gradientTransform="matrix(3.7795,0,0,-3.7795,647.6286,481.2064)"
   y2="104.6585"
   x2="-154.798"
   y1="104.6585"
   x1="-169.21519"
   gradientUnits="userSpaceOnUse"
   id="path815-7_1_">
		<stop
   id="stop12"
   style="stop-color:#9BCDED"
   offset="0" />
		<stop
   id="stop14"
   style="stop-color:#3493BA"
   offset="1" />
	</linearGradient>
	
	
		<linearGradient
   gradientTransform="matrix(3.7795,0,0,-3.7795,647.49467,481.25104)"
   y2="110.6037"
   x2="-167.0898"
   y1="99.984901"
   x1="-155.4838"
   gradientUnits="userSpaceOnUse"
   id="path815-6-2_1_">
		<stop
   id="stop18"
   style="stop-color:#936BAC"
   offset="0" />
		<stop
   id="stop20"
   style="stop-color:#D9CFE2"
   offset="1" />
	</linearGradient>
	
	
		<linearGradient
   gradientTransform="matrix(3.7795,0,0,-3.7795,647.6286,481.2064)"
   y2="117.3543"
   x2="-162.299"
   y1="99.920197"
   x1="-157.8105"
   gradientUnits="userSpaceOnUse"
   id="path815-6-9-1-4_1_">
		<stop
   id="stop24"
   style="stop-color:#FAC494"
   offset="0" />
		<stop
   id="stop26"
   style="stop-color:#F7AC52"
   offset="1" />
	</linearGradient>
	
	
		<linearGradient
   gradientTransform="matrix(3.7795,0,0,-3.7795,647.6286,481.2064)"
   y2="100.7766"
   x2="-155.20171"
   y1="118.8798"
   x1="-150.9015"
   gradientUnits="userSpaceOnUse"
   id="path815-6-9-1-5-9_1_">
		<stop
   id="stop30"
   style="stop-color:#FED540"
   offset="0" />
		<stop
   id="stop32"
   style="stop-color:#CDAA0B"
   offset="1" />
	</linearGradient>
	
	
		<linearGradient
   gradientTransform="matrix(3.7795,0,0,-3.7795,647.6286,481.2064)"
   y2="101.1918"
   x2="-155.3109"
   y1="114.1848"
   x1="-142.3653"
   gradientUnits="userSpaceOnUse"
   id="path815-6-9-1-5-4-6_1_">
		<stop
   id="stop36"
   style="stop-color:#8BC15B"
   offset="0" />
		<stop
   id="stop38"
   style="stop-color:#AFD395"
   offset="1" />
	</linearGradient>
	
	
</defs>
<style
   type="text/css"
   id="style2">
	.st0{fill:#FFFFFF;}
	.st1{fill:url(#path815-6-9-1-5-4-8_1_);}
	.st2{fill:url(#path815-7_1_);}
	.st3{fill:url(#path815-6-2_1_);}
	.st4{fill:url(#path815-6-9-1-4_1_);}
	.st5{fill:url(#path815-6-9-1-5-9_1_);}
	.st6{fill:url(#path815-6-9-1-5-4-6_1_);}
</style>
<sodipodi:namedview
   bordercolor="#666666"
   borderopacity="1.0"
   id="base"
   inkscape:current-layer="svg8"
   inkscape:cx="28.51376"
   inkscape:cy="81.504085"
   inkscape:document-units="px"
   inkscape:pagecheckerboard="true"
   inkscape:pageopacity="0.0"
   inkscape:pageshadow="2"
   inkscape:window-height="1537"
   inkscape:window-maximized="1"
   inkscape:window-width="3840"
   inkscape:window-x="-8"
   inkscape:window-y="-8"
   inkscape:zoom="7.9195959"
   pagecolor="#ffffff"
   showgrid="false"
   units="px"
   inkscape:object-nodes="false">
	</sodipodi:namedview>
<path
   style="color:#000000;font-style:normal;font-variant:normal;font-weight:normal;font-stretch:normal;font-size:medium;line-height:normal;font-family:sans-serif;font-variant-ligatures:normal;font-variant-position:normal;font-variant-caps:normal;font-variant-numeric:normal;font-variant-alternates:normal;font-feature-settings:normal;text-indent:0;text-align:start;text-decoration:none;text-decoration-line:none;text-decoration-style:solid;text-decoration-color:#000000;letter-spacing:normal;word-spacing:normal;text-transform:none;writing-mode:lr-tb;direction:ltr;text-orientation:mixed;dominant-baseline:auto;baseline-shift:baseline;text-anchor:start;white-space:normal;shape-padding:0;clip-rule:nonzero;display:inline;overflow:visible;visibility:visible;opacity:1;isolation:auto;mix-blend-mode:normal;color-interpolation:sRGB;color-interpolation-filters:linearRGB;solid-color:#000000;solid-opacity:1;vector-effect:none;fill:#102c38;fill-opacity:1;fill-rule:nonzero;stroke:none;stroke-width:15;stroke-linecap:round;stroke-linejoin:round;stroke-miterlimit:4;stroke-dasharray:none;stroke-dashoffset:0;stroke-opacity:1;color-rendering:auto;image-rendering:auto;shape-rendering:auto;text-rendering:auto;enable-background:accumulate"
   d="m 95.294922,20.568359 a 7.50075,7.50075 0 0 0 -6.375,3.646485 l -2.957031,4.939453 c -6.528464,-5.296175 -14.717161,-8.388672 -23.40625,-8.388672 -17.685464,0 -32.618056,12.635483 -36.644532,29.5625 -14.309125,1.785532 -25.55664025,13.974731 -25.55664025,28.738281 0,14.743647 11.22320225,27.000954 25.60351525,28.697264 a 7.50075,7.50075 0 0 0 2.396485,0.40235 h 1 33.201172 3.699218 26.199219 0.601563 c 19.133069,0 34.499999,-15.977654 34.499999,-35.199223 0,-15.750752 -10.3708,-29.100385 -24.52148,-33.464844 l 0.91796,-1.96875 a 7.50075,7.50075 0 0 0 0.41407,-5.228515 l -1.80078,-6.298829 a 7.50075,7.50075 0 0 0 -7.271488,-5.4375 z M 62.556641,35.765625 c 7.518759,0 14.332685,3.704947 18.519531,9.9375 a 7.50075,7.50075 0 0 0 4.207031,3.037109 7.50075,7.50075 0 0 0 7.15625,4.166016 c 0.46987,-0.02719 0.74328,-0.04102 0.816406,-0.04102 10.644081,0 19.300781,8.723386 19.300781,20.101563 0,11.378431 -8.63307,20.199219 -19.499999,20.199219 H 92.455078 66.255859 62.556641 29.548828 a 7.50075,7.50075 0 0 0 -0.865234,-0.0918 C 21.263715,92.748785 15.355469,86.609885 15.355469,79.066406 c 0,-7.824534 6.275076,-14.099609 14.099609,-14.099609 0.5039,0 1.109072,0.05759 2.154297,0.162109 A 7.50075,7.50075 0 0 0 39.84375,58.074219 C 40.536452,45.374676 50.588012,35.765625 62.556641,35.765625 Z"
   id="path815-6-1-3"
   inkscape:connector-curvature="0" /><path
   style="fill:url(#path815-6-9-1-5-4-8_1_)"
   d="m 118.7,64.4 -56.3,36.2 h 30.2 v 0 c 0.2,0 0.4,0 0.6,0 C 108,100.7 120,88.3 120,73 c 0.1,-3.5 -0.7,-6.1 -1.3,-8.6 z m -56.3,36.3 z"
   class="st1"
   sodipodi:nodetypes="cccccccccc"
   inkscape:connector-curvature="0"
   id="path815-6-9-1-5-4-8" /><path
   style="fill:url(#path815-7_1_)"
   d="M 9.8,70.6 C 8.6,73.3 8,76.2 8,79.1 c 0,11.5 9.1,21 20.5,21.5 v 0.1 h 1 32.9 z"
   class="st2"
   inkscape:connector-curvature="0"
   id="path815-7" /><path
   style="fill:url(#path815-6-2_1_)"
   d="m 29.566071,57.544643 c -8.6,0 -16.4,5.2 -19.7999996,13.1 l 52.6999996,30.099997 -30.2,-42.999997 c -0.9,-0.1 -1.8,-0.2 -2.7,-0.2 z m -20.5999996,15.2 c -0.2,0.6 -0.3,1.1 -0.4,1.7 0,-0.6 0.2,-1.1 0.4,-1.7 z m -0.6,2.2 c -0.1,0.5 -0.2,1 -0.2,1.5 0,-0.5 0.1,-1 0.2,-1.5 z"
   class="st3"
   inkscape:connector-curvature="0"
   id="path815-6-2" /><path
   style="fill:url(#path815-6-9-1-4_1_)"
   d="m 62.5,28.3 c -16,0 -29.3,12.9 -30.2,29.4 -0.1,0 -0.1,0 -0.2,0 l 30.2,43 z M 30.1,57.5 c 0.7,0 1.4,0.1 2,0.2 -0.7,-0.1 -1.4,-0.2 -2,-0.2 z m -7,1 c -0.6,0.2 -1.1,0.4 -1.7,0.6 0.6,-0.3 1.2,-0.5 1.7,-0.6 z m -1.7,0.6 c -0.3,0.1 -0.7,0.3 -1,0.4 0.4,-0.1 0.7,-0.3 1,-0.4 z m -1,0.4 c -0.3,0.1 -0.6,0.3 -1,0.5 0.4,-0.2 0.7,-0.3 1,-0.5 z M 19.5,60 c -0.3,0.2 -0.6,0.4 -1,0.5 0.4,-0.2 0.7,-0.3 1,-0.5 z m -1,0.5 c -0.3,0.2 -0.6,0.4 -0.9,0.5 0.3,-0.1 0.6,-0.3 0.9,-0.5 z m -0.9,0.6 c -0.3,0.2 -0.6,0.4 -0.9,0.7 0.3,-0.3 0.6,-0.5 0.9,-0.7 z m -0.9,0.6 c -0.3,0.2 -0.5,0.4 -0.8,0.6 0.3,-0.2 0.5,-0.4 0.8,-0.6 z m -0.8,0.6 c -0.3,0.2 -0.6,0.5 -0.9,0.8 0.3,-0.3 0.6,-0.5 0.9,-0.8 z M 15,63.1 c -0.3,0.2 -0.5,0.5 -0.7,0.7 0.3,-0.3 0.5,-0.5 0.7,-0.7 z m -0.7,0.7 c -0.3,0.3 -0.5,0.6 -0.8,0.9 0.3,-0.4 0.5,-0.6 0.8,-0.9 z m -0.8,0.8 c -0.2,0.2 -0.4,0.5 -0.7,0.7 0.3,-0.2 0.5,-0.4 0.7,-0.7 z m -0.6,0.8 c -0.2,0.3 -0.5,0.6 -0.7,0.9 0.2,-0.3 0.4,-0.6 0.7,-0.9 z m -0.7,0.9 c -0.2,0.3 -0.4,0.5 -0.6,0.8 0.2,-0.3 0.4,-0.5 0.6,-0.8 z m -0.6,0.8 c -0.1,0.2 -0.2,0.4 -0.4,0.6 v 0 c 0.1,-0.2 0.3,-0.4 0.4,-0.6 z"
   class="st4"
   inkscape:connector-curvature="0"
   id="path815-6-9-1-4" /><path
   style="fill:url(#path815-6-9-1-5-9_1_)"
   d="m 62.5,28.3 -0.1,72.4 27.2,-55 C 84.6,35 74.1,28.3 62.5,28.3 Z"
   class="st5"
   inkscape:connector-curvature="0"
   id="path815-6-9-1-5-9" /><path
   style="fill:url(#path815-6-9-1-5-4-6_1_)"
   d="m 93.2,45.4 c -1.2,0 -2.4,0.1 -3.6,0.3 l -27.2,55 v 0 l 56.3,-36.3 c -3.6,-11.3 -13.9,-19 -25.5,-19 z"
   class="st6"
   inkscape:connector-curvature="0"
   id="path815-6-9-1-5-4-6" /><path
   style="fill:#ffffff"
   d="M 95.3,28.1 61.9,83.9 42.2,69.1 38,74.8 62.5,100.7 h 3.7 L 97.1,34.4 Z"
   class="st0"
   sodipodi:nodetypes="cccccccc"
   inkscape:connector-curvature="0"
   id="rect5594" />
</svg>