<?xml version="1.0" encoding="UTF-8" standalone="no"?>
<svg
   xmlns:dc="http://purl.org/dc/elements/1.1/"
   xmlns:cc="http://creativecommons.org/ns#"
   xmlns:rdf="http://www.w3.org/1999/02/22-rdf-syntax-ns#"
   xmlns:svg="http://www.w3.org/2000/svg"
   xmlns="http://www.w3.org/2000/svg"
   xmlns:sodipodi="http://sodipodi.sourceforge.net/DTD/sodipodi-0.dtd"
   xmlns:inkscape="http://www.inkscape.org/namespaces/inkscape"
   id="svg8"
   viewBox="0 0 128 128"
   version="1.1"
   sodipodi:docname="devops.svg"
   inkscape:version="0.92.3 (2405546, 2018-03-11)">
  <metadata
     id="metadata3634">
    <rdf:RDF>
      <cc:Work
         rdf:about="">
        <dc:format>image/svg+xml</dc:format>
        <dc:type
           rdf:resource="http://purl.org/dc/dcmitype/StillImage" />
        <dc:title></dc:title>
      </cc:Work>
    </rdf:RDF>
  </metadata>
  <sodipodi:namedview
     pagecolor="#ffffff"
     bordercolor="#666666"
     borderopacity="1"
     objecttolerance="10"
     gridtolerance="10"
     guidetolerance="10"
     inkscape:pageopacity="0"
     inkscape:pageshadow="2"
     inkscape:window-width="1657"
     inkscape:window-height="734"
     id="namedview3632"
     showgrid="false"
     inkscape:zoom="3.6875"
     inkscape:cx="94.177444"
     inkscape:cy="41.912881"
     inkscape:window-x="1005"
     inkscape:window-y="546"
     inkscape:window-maximized="0"
     inkscape:current-layer="svg8" />
  <defs
     id="defs3627">
    <style
       id="style3615">.cls-1{fill:url(#linear-gradient);}.cls-2{fill:url(#linear-gradient-2);}</style>
    <linearGradient
       id="linear-gradient"
       x1="60.15"
       y1="60.35"
       x2="128.34"
       y2="68.26"
       gradientUnits="userSpaceOnUse">
      <stop
         offset="0"
         stop-color="#936bac"
         id="stop3617" />
      <stop
         offset="1"
         stop-color="#d9cfe2"
         id="stop3619" />
    </linearGradient>
    <linearGradient
       id="linear-gradient-2"
       x1="145.85"
       y1="199.36"
       x2="217.05"
       y2="199.36"
       gradientTransform="matrix(0.87, 0, 0, -0.87, -118.95, 237.39)"
       gradientUnits="userSpaceOnUse">
      <stop
         offset="0"
         stop-color="#9bcded"
         id="stop3622" />
      <stop
         offset="1"
         stop-color="#3493ba"
         id="stop3624" />
    </linearGradient>
  </defs>
  <path
     style="color:#000000;font-style:normal;font-variant:normal;font-weight:normal;font-stretch:normal;font-size:medium;line-height:normal;font-family:sans-serif;font-variant-ligatures:normal;font-variant-position:normal;font-variant-caps:normal;font-variant-numeric:normal;font-variant-alternates:normal;font-feature-settings:normal;text-indent:0;text-align:start;text-decoration:none;text-decoration-line:none;text-decoration-style:solid;text-decoration-color:#000000;letter-spacing:normal;word-spacing:normal;text-transform:none;writing-mode:lr-tb;direction:ltr;text-orientation:mixed;dominant-baseline:auto;baseline-shift:baseline;text-anchor:start;white-space:normal;shape-padding:0;clip-rule:nonzero;display:inline;overflow:visible;visibility:visible;opacity:1;isolation:auto;mix-blend-mode:normal;color-interpolation:sRGB;color-interpolation-filters:linearRGB;solid-color:#000000;solid-opacity:1;vector-effect:none;fill:#102c38;fill-opacity:1;fill-rule:nonzero;stroke:none;stroke-width:14;stroke-linecap:round;stroke-linejoin:round;stroke-miterlimit:4;stroke-dasharray:none;stroke-dashoffset:0;stroke-opacity:1;color-rendering:auto;image-rendering:auto;shape-rendering:auto;text-rendering:auto;enable-background:accumulate"
     d="m 91.621094,28.501953 a 7.0007,7.0007 0 0 0 -0.4375,0.01953 h -0.503906 a 7.0007,7.0007 0 0 0 -1.359376,0.134766 7.0007,7.0007 0 0 0 -0.980468,0.01563 c -8.239573,0.78078 -15.95015,4.423311 -21.785156,10.292969 a 7.0007,7.0007 0 0 0 -0.189454,0.199218 l -2.367187,2.578126 -2.337891,-2.570313 a 7.0007,7.0007 0 0 0 -0.21875,-0.230469 C 55.677382,33.152443 48.086641,29.529531 39.960938,28.6875 a 7.0007,7.0007 0 0 0 -1.128907,-0.01758 7.0007,7.0007 0 0 0 -1.302734,-0.128906 h -0.640625 a 7.0007,7.0007 0 0 0 -0.548828,-0.01953 C 17.841641,28.625574 2.4021205,43.03176 1.0195312,61.478516 a 7.0007,7.0007 0 0 0 0.00391,0.974609 7.0007,7.0007 0 0 0 -0.12304688,1.257813 v 0.291015 a 7.0007,7.0007 0 0 0 0,0.0332 C 0.98239604,81.534521 13.877431,96.468314 31.177734,99.101562 a 7.0007,7.0007 0 0 0 1.074219,0.07227 7.0007,7.0007 0 0 0 1.041016,0.171875 c 0.997319,0.08514 2.027187,0.134766 3.085937,0.134766 a 7.0007,7.0007 0 0 0 0.0078,0 c 9.408137,-0.0094 18.431046,-3.771724 25.060547,-10.447266 a 7.0007,7.0007 0 0 0 0.193359,-0.201172 l 2.369141,-2.583984 2.332031,2.564453 a 7.0007,7.0007 0 0 0 0.212891,0.222656 c 7.61662,7.664468 18.333017,11.432094 29.070312,10.220703 a 7.0007,7.0007 0 0 0 0.998047,-0.195312 7.0007,7.0007 0 0 0 1.058594,-0.09766 C 114.59398,95.964838 127.02046,81.209037 127.09961,64.033203 a 7.0007,7.0007 0 0 0 0,-0.03125 v -0.230469 a 7.0007,7.0007 0 0 0 -0.125,-1.287109 7.0007,7.0007 0 0 0 0.006,-1.001953 C 125.60869,43.011613 110.14258,28.586891 91.621094,28.501953 Z m -5.603516,14.775391 1.16211,1.52539 -0.720704,0.933594 c -3.121125,0.859938 -5.990519,2.508221 -8.30664,4.822266 a 7.0007,7.0007 0 0 0 -0.02148,0.02148 l -0.05859,0.06055 -1.605469,-1.779297 0.04297,-0.04687 c 2.64975,-2.657179 5.930124,-4.556815 9.507812,-5.537109 z M 42.1875,43.324219 c 3.493018,0.995112 6.694991,2.866173 9.292969,5.46289 l 4.59375,5.052735 a 7.0007,7.0007 0 0 0 -1.732422,1.310547 l -4.515625,-4.5625 a 7.0007,7.0007 0 0 0 -0.02344,-0.02344 c -1.939445,-1.942069 -4.350972,-3.222714 -6.904296,-4.15625 l -1.535157,-2.007812 z m -18.101562,3.189453 a 7.0007,7.0007 0 0 0 1.105468,2.142578 l 0.07227,0.09375 c -2.978753,2.167882 -5.328988,5.158546 -6.632813,8.716797 l -2.521484,1.933594 -0.527344,-0.404297 c 1.254422,-5.175644 4.329954,-9.538176 8.503907,-12.482422 z m 80.388672,0.414062 c 3.89019,2.941324 6.75575,7.132558 7.94727,12.082032 l -0.4375,0.33789 -2.60547,-1.998047 c -1.22058,-3.301007 -3.34608,-6.117652 -6.04102,-8.238281 l 0.0234,-0.0293 a 7.0007,7.0007 0 0 0 1.11328,-2.154297 z M 91.496094,59.005859 a 7.0007,7.0007 0 0 0 0.466797,0.03906 c 2.247181,0.09561 4.061857,1.649731 4.501953,3.855469 a 7.0007,7.0007 0 0 0 0.117187,0.46289 7.0007,7.0007 0 0 0 -0.002,0.158203 v 0.480469 a 7.0007,7.0007 0 0 0 0,0.07031 c 0.02029,2.038833 -1.190892,3.822302 -3.09375,4.554687 a 7.0007,7.0007 0 0 0 -0.396484,0.175781 7.0007,7.0007 0 0 0 -0.582032,0.07227 c -1.631717,0.284238 -3.280593,-0.2308 -4.46289,-1.390625 h -0.002 l -3.482422,-3.507813 3.494141,-3.517578 c 0.797895,-0.794294 1.843369,-1.285241 2.964843,-1.386718 a 7.0007,7.0007 0 0 0 0.476563,-0.06641 z m -54.464844,0.06641 a 7.0007,7.0007 0 0 0 0.320312,0.06445 c 0.963281,0.167074 1.849578,0.627287 2.541016,1.318359 l 3.519531,3.556641 -3.521484,3.546875 c -0.925448,0.929591 -2.176435,1.447726 -3.488281,1.443359 a 7.0007,7.0007 0 0 0 -0.03125,0 c -0.295307,3.51e-4 -0.590001,-0.02511 -0.88086,-0.07617 A 7.0007,7.0007 0 0 0 35.083984,68.875 7.0007,7.0007 0 0 0 34.509766,68.615234 c -1.89998,-0.730016 -3.10962,-2.50962 -3.089844,-4.544922 a 7.0007,7.0007 0 0 0 0,-0.06836 v -0.267578 a 7.0007,7.0007 0 0 0 0.0039,-0.242187 7.0007,7.0007 0 0 0 0.126953,-0.507813 c 0.451579,-2.326216 2.407861,-3.920047 4.777344,-3.892578 a 7.0007,7.0007 0 0 0 0.08203,0 h 0.228516 a 7.0007,7.0007 0 0 0 0.392578,-0.01953 z m 31.234375,8.216796 1.335937,1.482422 a 7.0007,7.0007 0 0 0 0.230469,0.242188 l 8.339844,8.398437 a 7.0007,7.0007 0 0 0 0.0625,0.0625 c 1.054716,1.035356 2.224902,1.917038 3.462891,2.669922 a 7.0007,7.0007 0 0 0 -0.708985,2.398438 c -1.604756,-0.927613 -3.128313,-2.004801 -4.466797,-3.345703 l -3.050781,-3.351563 -6.707031,-7.404297 0.126953,-0.970703 z m 38.763675,7.71875 0.70117,0.541016 a 7.0007,7.0007 0 0 0 1.33594,0.802734 c -2.44154,3.446894 -5.8279,6.187021 -9.908207,7.730469 L 98.568359,83.3125 100.83203,80.361328 c 2.44463,-1.373657 4.60583,-3.120436 6.19727,-5.353516 z m -86.023441,0.03516 c 1.586488,2.211847 3.731566,3.943321 6.158203,5.30664 l 2.65625,3.46875 -0.380859,0.496094 c -4.330898,-1.491212 -7.92312,-4.330383 -10.486328,-7.9375 a 7.0007,7.0007 0 0 0 1.392578,-0.826172 z m 28.882813,2.318359 1.630859,1.792969 -0.0332,0.03711 c -1.260651,1.265108 -2.698638,2.28839 -4.205078,3.189453 a 7.0007,7.0007 0 0 0 -0.912109,-2.271484 c 1.236143,-0.767836 2.413086,-1.637015 3.455078,-2.685547 a 7.0007,7.0007 0 0 0 0.0039,-0.002 z"
     id="path7716-3-3"
     inkscape:connector-curvature="0" />
  <path
     id="path7716-3"
     class="cls-1"
     d="M91.62,35.52h-.94l7.13,9.3-5.55,7.23a11.8,11.8,0,0,1,11.07,9.48L112,68.18,120,62a28.62,28.62,0,0,0-28.41-26.5ZM89,35.64A28.43,28.43,0,0,0,71.52,43.9L67,48.82l10.83,12,5.27-5.31a11.82,11.82,0,0,1,7.29-3.41L96,44.83ZM71,59.87,60.65,61.23,59.4,70.74l8.89,9.81h0l3.23,3.55A28.39,28.39,0,0,0,94.84,92.3l-6.9-9,5.77-7.53a12.12,12.12,0,0,1-10.57-3.29l-8.34-8.4Zm32.58,3.65c0,.16,0,.32,0,.48A11.83,11.83,0,0,1,96,75.16l-6.25,8.15,6.71,8.76A28.64,28.64,0,0,0,120.1,64v-.23L112,70Z" />
  <path
     id="path7716-2"
     class="cls-2"
     d="M36.38,35.52A28.62,28.62,0,0,0,8,62l8.11,6.22,8.57-6.57a11.81,11.81,0,0,1,11.73-9.56h.23L30.75,44.4l6.78-8.86-1.15,0Zm2.86.14L32.55,44.4l6,7.84a11.74,11.74,0,0,1,6.3,3.27L53.25,64l4.89,5.39L59.38,60l10.44-1.38L64,52.15h0l-7.52-8.27a28.47,28.47,0,0,0-17.24-8.23ZM24.43,63.58,16.08,70,7.9,63.71V64A28.64,28.64,0,0,0,32.23,92.18l6.41-8.36L32,75.15A11.82,11.82,0,0,1,24.42,64c0-.14,0-.28,0-.42ZM50.11,67.2l-5.25,5.29A11.9,11.9,0,0,1,36.38,76a12.06,12.06,0,0,1-2.1-.18l6.16,8-6.55,8.55c.82.07,1.65.11,2.49.11a28.37,28.37,0,0,0,20.1-8.38L61,79.17Z" />
</svg>
