<?xml version="1.0" encoding="UTF-8" standalone="no"?>
<!-- Created with Inkscape (http://www.inkscape.org/) -->

<svg
   xmlns:dc="http://purl.org/dc/elements/1.1/"
   xmlns:cc="http://creativecommons.org/ns#"
   xmlns:rdf="http://www.w3.org/1999/02/22-rdf-syntax-ns#"
   xmlns:svg="http://www.w3.org/2000/svg"
   xmlns="http://www.w3.org/2000/svg"
   xmlns:sodipodi="http://sodipodi.sourceforge.net/DTD/sodipodi-0.dtd"
   xmlns:inkscape="http://www.inkscape.org/namespaces/inkscape"
   width="128"
   height="128"
   viewBox="0 0 33.866666 33.866668"
   version="1.1"
   id="svg8"
   inkscape:version="0.92.3 (2405546, 2018-03-11)"
   sodipodi:docname="iaas.svg">
  <defs
     id="defs2" />
  <sodipodi:namedview
     id="base"
     pagecolor="#ffffff"
     bordercolor="#666666"
     borderopacity="1.0"
     inkscape:pageopacity="0.0"
     inkscape:pageshadow="2"
     inkscape:zoom="5.6"
     inkscape:cx="38.33426"
     inkscape:cy="68.511228"
     inkscape:document-units="px"
     inkscape:current-layer="layer1"
     showgrid="false"
     units="px"
     inkscape:window-width="1918"
     inkscape:window-height="1528"
     inkscape:window-x="1913"
     inkscape:window-y="0"
     inkscape:window-maximized="0"
     inkscape:pagecheckerboard="true" />
  <metadata
     id="metadata5">
    <rdf:RDF>
      <cc:Work
         rdf:about="">
        <dc:format>image/svg+xml</dc:format>
        <dc:type
           rdf:resource="http://purl.org/dc/dcmitype/StillImage" />
        <dc:title></dc:title>
      </cc:Work>
    </rdf:RDF>
  </metadata>
  <g
     inkscape:label="Layer 1"
     inkscape:groupmode="layer"
     id="layer1"
     transform="translate(0,-263.13333)">
    <path
       style="display:inline;opacity:1;fill:#ffffff;fill-opacity:1;stroke:none;stroke-width:0.52916658;stroke-linecap:round;stroke-linejoin:round;stroke-miterlimit:4;stroke-dasharray:none;stroke-opacity:1;paint-order:markers fill stroke"
       d="m 16.933023,271.14152 a 14.726005,4.908669 0 0 0 -14.0656807,3.45621 14.726005,4.908669 0 0 0 -0.00269,10e-4 14.726005,4.908669 0 0 0 -0.3134882,0.40955 14.726008,4.908669 0 0 0 -0.062704,0.0935 14.726005,4.908669 0 0 0 -0.1453925,0.31947 14.726008,4.908669 0 0 0 -0.070709,0.1968 14.726005,4.908669 0 0 0 -0.064036,0.4222 14.726008,4.908669 0 0 0 0.00133,0.014 v 0.0211 a 14.726005,4.908669 0 0 0 14.7233384,4.88349 14.726005,4.908669 0 0 0 14.723978,-4.8955 v -0.0176 a 14.726008,4.908669 0 0 0 0.0013,-0.007 14.726005,4.908669 0 0 0 -0.0096,-0.0868 14.726008,4.908669 0 0 0 -0.05872,-0.33878 14.726005,4.908669 0 0 0 -0.110031,-0.30225 14.726008,4.908669 0 0 0 -0.07204,-0.15146 14.726005,4.908669 0 0 0 -0.256626,-0.38153 14.726008,4.908669 0 0 0 -0.05268,-0.0675 14.726005,4.908669 0 0 0 -14.165726,-3.57093 z M 31.657,278.04729 c -0.187847,0.20735 -0.398197,0.4028 -0.627616,0.58362 -0.863935,0.68085 -2.018641,1.23465 -3.412873,1.6994 -2.788472,0.9295 -6.540116,1.48201 -10.683488,1.48201 -4.143375,0 -7.8943519,-0.55251 -10.6828217,-1.48201 -1.3942356,-0.46475 -2.5496131,-1.01855 -3.4135398,-1.6994 -0.2291773,-0.18065 -0.4393241,-0.3757 -0.6269494,-0.58294 v 0.5429 a 14.726005,4.908669 0 0 0 -0.00269,0.0176 14.726005,4.908669 0 0 0 14.7259779,4.90821 14.726005,4.908669 0 0 0 14.726645,-4.90821 14.726005,4.908669 0 0 0 -0.0027,-0.0246 z m 0,2.73856 c -0.187847,0.20736 -0.398197,0.40279 -0.627616,0.58362 -0.863935,0.68085 -2.018641,1.23469 -3.412873,1.69941 -2.788472,0.92949 -6.540116,1.482 -10.683488,1.482 -4.143375,0 -7.8943519,-0.55251 -10.6828217,-1.482 -1.3942356,-0.46472 -2.5496131,-1.01856 -3.4135398,-1.69941 -0.2291773,-0.18065 -0.4393241,-0.3757 -0.6269494,-0.58295 v 0.54291 c -9.202e-4,0.007 -0.00175,0.0108 -0.00269,0.0176 7.52e-4,2.71079 6.5935719,4.90819 14.7259779,4.90819 8.132669,1.5e-4 14.725897,-2.19729 14.726645,-4.90819 -6.82e-4,-0.007 -0.0016,-0.0176 -0.0027,-0.0246 z m 0,2.73857 c -0.187847,0.20735 -0.398197,0.40278 -0.627616,0.5836 -0.863935,0.68086 -2.018641,1.2347 -3.412873,1.69944 -2.788472,0.92948 -6.540116,1.48202 -10.683488,1.48202 -4.143375,0 -7.8943519,-0.55254 -10.6828217,-1.48202 -1.3942356,-0.46474 -2.5496131,-1.01858 -3.4135398,-1.69944 -0.2291773,-0.18064 -0.4393241,-0.37568 -0.6269494,-0.58294 v 0.54292 c -9.202e-4,0.007 -0.00175,0.0108 -0.00269,0.0176 7.52e-4,2.71084 6.5935719,4.90824 14.7259779,4.90824 8.132669,1e-4 14.725897,-2.19734 14.726645,-4.90824 -0.001,-0.007 -0.0016,-0.0176 -0.0027,-0.0246 z"
       id="path7498"
       inkscape:connector-curvature="0" />
  </g>
</svg>
