<?xml version="1.0" encoding="UTF-8" standalone="no"?>
<!-- Created with Inkscape (http://www.inkscape.org/) -->

<svg
   xmlns:dc="http://purl.org/dc/elements/1.1/"
   xmlns:cc="http://creativecommons.org/ns#"
   xmlns:rdf="http://www.w3.org/1999/02/22-rdf-syntax-ns#"
   xmlns:svg="http://www.w3.org/2000/svg"
   xmlns="http://www.w3.org/2000/svg"
   xmlns:sodipodi="http://sodipodi.sourceforge.net/DTD/sodipodi-0.dtd"
   xmlns:inkscape="http://www.inkscape.org/namespaces/inkscape"
   width="128"
   height="128"
   viewBox="0 0 33.866666 33.866668"
   version="1.1"
   id="svg8"
   inkscape:version="0.92.3 (2405546, 2018-03-11)"
   sodipodi:docname="stack-core-costs.svg">
  <defs
     id="defs2" />
  <sodipodi:namedview
     id="base"
     pagecolor="#ffffff"
     bordercolor="#666666"
     borderopacity="1.0"
     inkscape:pageopacity="0.0"
     inkscape:pageshadow="2"
     inkscape:zoom="2.8"
     inkscape:cx="-50.749652"
     inkscape:cy="69.866225"
     inkscape:document-units="px"
     inkscape:current-layer="layer1"
     showgrid="false"
     units="px"
     inkscape:window-width="1918"
     inkscape:window-height="1528"
     inkscape:window-x="1913"
     inkscape:window-y="0"
     inkscape:window-maximized="0"
     inkscape:pagecheckerboard="true" />
  <metadata
     id="metadata5">
    <rdf:RDF>
      <cc:Work
         rdf:about="">
        <dc:format>image/svg+xml</dc:format>
        <dc:type
           rdf:resource="http://purl.org/dc/dcmitype/StillImage" />
        <dc:title />
      </cc:Work>
    </rdf:RDF>
  </metadata>
  <g
     inkscape:label="Layer 1"
     inkscape:groupmode="layer"
     id="layer1"
     transform="translate(0,-263.13333)">
    <path
       style="font-style:normal;font-variant:normal;font-weight:normal;font-stretch:normal;font-size:medium;line-height:1.25;font-family:'Rockwell Extra Bold';-inkscape-font-specification:'Rockwell Extra Bold, ';letter-spacing:0px;word-spacing:0px;fill:#ffffff;fill-opacity:1;stroke:none;stroke-width:0.99999994"
       d="m 101.32422,8.8183594 -2.044923,1.0644531 -0.310547,2.2871095 1.69141,1.566406 0.66406,0.08789 h 0.25 l 2.62109,0.257812 1.29883,0.40625 2.26758,-0.412109 0.97266,-2.089844 -1.15821,-1.9999999 -0.60547,-0.28125 -1.51953,-0.4648437 -0.49609,-0.1035156 -3.02539,-0.3027344 -0.25196,-0.015625 z m -75.000001,0.00195 -0.185547,0.095703 -0.648438,-0.023437 -2.451172,0.2441407 -0.488281,0.1035156 -2.419922,0.7441406 -1.638671,1.617187 0.375,2.273438 2.082031,0.996094 0.658203,-0.109375 2.191406,-0.671875 2.19336,-0.222656 0.109374,-0.07227 0.222657,0.0293 h 4.998047 l 2.042968,-1.0625 0.310547,-2.289063 -1.689453,-1.5644529 -0.664062,-0.087891 z m 15,0 -2.044922,1.0625 -0.310547,2.2871095 1.691406,1.566406 0.664063,0.08789 h 4.998047 l 2.042968,-1.0625 0.310547,-2.289063 -1.689453,-1.5644529 -0.664062,-0.087891 z m 15,0 -2.044922,1.0625 -0.310547,2.2871095 1.691406,1.566406 0.664063,0.08789 h 4.998047 l 2.042968,-1.0625 0.310547,-2.289063 -1.689453,-1.5644529 -0.664062,-0.087891 z m 15,0 -2.044922,1.0625 -0.310547,2.2871095 1.691406,1.566406 0.664063,0.08789 h 4.998047 l 2.042968,-1.0625 0.310547,-2.289063 -1.689453,-1.5644529 -0.664062,-0.087891 z m 15,0 -2.044922,1.0625 -0.310547,2.2871095 1.691406,1.566406 0.664063,0.08789 h 4.998047 l 2.042968,-1.0625 0.310547,-2.289063 -1.689453,-1.5644529 -0.664062,-0.087891 z m 27.607421,6.6054685 -1.95508,1.21875 -0.13281,2.302735 0.0957,0.162109 -0.0156,0.0078 1.25586,2.318359 0.55273,1.779297 1.625,1.646484 2.26563,-0.384766 0.99609,-2.074218 -0.10937,-0.664063 -0.6211,-2 -0.18359,-0.458984 -1.38086,-2.546875 -0.27344,-0.398438 z m -100.126952,0.84961 -2.177735,0.746093 -0.398437,0.53711 -0.931641,1.720703 -0.191406,0.457031 -0.871094,2.8125 -0.095703,0.496094 -0.00781,0.08789 0.8496094,2.140626 2.2441402,0.53125 1.726563,-1.527344 0.06055,-0.251953 v -0.01367 l 0.789062,-2.546875 0.826172,-1.529297 0.03711,-2.302735 z m 53.386718,6.539062 c -9.663612,0 -17.178177,2.10987 -22.546875,6.328125 -5.368696,4.25663 -8.052734,9.87424 -8.052734,16.853516 0,3.643061 0.919046,7.248091 2.759765,10.814453 h -8.857421 v 10.583984 h 14.609375 c 2.914429,2.952718 5.024298,6.460509 6.328125,10.525391 -2.339246,-0.996989 -4.755487,-1.496094 -7.248047,-1.496094 -4.218255,0 -7.689357,1.227367 -10.41211,3.681641 -2.799333,2.454198 -4.199218,5.75295 -4.199218,9.894531 0,4.64005 1.535699,8.32215 4.603515,11.04492 3.067818,2.76105 6.843414,4.14063 11.330078,4.14063 5.790569,0 11.065163,-2.41615 15.820313,-7.24805 4.333279,4.8319 9.662849,7.24805 15.990234,7.24805 12.232975,0 19.270608,-7.611802 21.111328,-22.835941 L 84.910156,78.783203 c -1.15044,4.946898 -3.720771,7.419922 -7.708984,7.419922 -2.684311,0 -5.272991,-0.728262 -7.765625,-2.185547 1.073784,-2.876069 1.611328,-6.193087 1.611328,-9.951172 0,-2.224151 -0.267423,-4.447724 -0.804687,-6.671875 H 84.910156 V 56.810547 H 67.078125 c -2.377613,-5.21532 -3.738921,-8.39839 -4.083984,-9.548828 -0.268634,-0.843666 -0.404297,-1.898601 -0.404297,-3.164063 0,-2.109127 0.653202,-3.758478 1.957031,-4.947265 1.342193,-1.227137 2.952946,-1.839844 4.832031,-1.839844 4.524883,0 7.150188,2.874739 7.878906,8.626953 l 18.810547,-2.472656 c 0,-6.327433 -2.377663,-11.350577 -7.132812,-15.070313 -4.755074,-3.719735 -12.003724,-5.580078 -21.744141,-5.580078 z m 48.638674,7.257813 -1.56641,1.689453 -0.0879,0.664062 v 4.998047 l 1.0625,2.044922 2.28906,0.310547 1.56446,-1.691406 0.0879,-0.664063 v -4.998047 l -1.0625,-2.044922 z m -105.355471,0.9375 -1.5644528,1.697265 -0.087891,0.65625 v 5.00586 l 1.0625,2.044921 2.2812504,0.302735 1.564453,-1.691406 0.08789,-0.65625 v -5.00586 l -1.0625,-2.042969 z m 105.355471,14.0625 -1.56641,1.689453 -0.0879,0.664062 v 4.998047 l 1.0625,2.044922 2.28906,0.310547 1.56446,-1.691406 0.0879,-0.664063 v -4.998047 l -1.0625,-2.044922 z m -105.355471,0.9375 -1.5644528,1.697265 -0.087891,0.65625 v 5.00586 l 1.0625,2.044921 2.2812504,0.302735 1.564453,-1.691406 0.08789,-0.65625 v -5.00586 l -1.0625,-2.042969 z m 105.355471,14.0625 -1.56641,1.689453 -0.0879,0.664062 v 4.998047 l 1.0625,2.044922 2.28906,0.310547 1.56446,-1.691406 0.0879,-0.664063 v -4.998047 l -1.0625,-2.044922 z m -105.355471,0.9375 -1.5644528,1.697265 -0.087891,0.65625 v 5.00586 l 1.0625,2.044921 2.2812504,0.302735 1.564453,-1.691406 0.08789,-0.65625 v -5.00586 l -1.0625,-2.042969 z m 105.355471,14.0625 -1.56641,1.689453 -0.0879,0.664062 v 4.998047 l 1.0625,2.044922 2.28906,0.310547 1.56446,-1.691406 0.0879,-0.664063 v -4.998047 l -1.0625,-2.044922 z m -105.355471,0.9375 -1.5644528,1.697265 -0.087891,0.65625 v 5.00586 l 1.0625,2.044921 2.2812504,0.302735 1.564453,-1.691406 0.08789,-0.65625 v -5.00586 l -1.0625,-2.042969 z m 32.730469,7.375 c 3.489613,0 6.788349,1.764981 9.894531,5.292968 -0.805301,5.790564 -3.834216,8.685547 -9.08789,8.685547 -2.262516,0 -4.084359,-0.710046 -5.464844,-2.128906 -1.418849,-1.41891 -2.128906,-3.145331 -2.128906,-5.177734 0,-2.070829 0.689828,-3.699935 2.070312,-4.888672 1.342194,-1.188813 2.914444,-1.783203 4.716797,-1.783203 z m 72.625002,6.6875 -1.56641,1.689453 -0.0879,0.664062 v 4.998047 l 1.0625,2.044922 2.28906,0.310547 1.56446,-1.691406 0.0879,-0.664063 v -4.998047 l -1.0625,-2.044922 z m -105.355471,0.9375 -1.5644528,1.697265 -0.087891,0.65625 v 5.00586 l 1.0625,2.044919 2.2812504,0.30274 1.564453,-1.691409 0.08789,-0.65625 v -5.00586 l -1.0625,-2.042969 z m 104.986331,13.781254 -1.99414,1.15234 -0.28125,0.60547 v 0.008 l -1.15039,2.13281 -1.01954,1.22461 -0.47851,2.25196 1.56445,1.6914 2.28125,-0.30273 0.49414,-0.45899 1.17383,-1.43164 0.27344,-0.39844 1.38086,-2.54687 0.18359,-0.45117 0.0742,-0.23633 -0.40625,-2.27344 z m -102.343752,0.86328 -2.154297,0.8125 -0.56836,2.23632 0.236328,0.6211 1.046875,1.9414 0.265625,0.39844 1.779297,2.15625 2.119141,0.90625 1.962891,-1.21679 0.125,-2.30274 -0.345704,-0.56836 -1.617187,-1.94922 -0.945313,-1.74218 z m 91.093752,8.25976 -2.70899,0.26758 h -2.031247 l -2.044922,1.0625 -0.310547,2.28125 1.691407,1.56445 0.664062,0.0879 h 2.207027 l 0.25196,-0.0137 2.77539,-0.27344 1.92578,-1.26367 0.082,-2.30273 -1.83789,-1.38672 z m -79.482424,0.0898 -2.140625,0.85547 -0.53125,2.24414 1.521484,1.7207 0.648437,0.1543 1.845704,0.18554 0.251953,0.0156 h 3.144531 l 2.044922,-1.06446 0.310547,-2.28125 -1.691407,-1.56445 -0.664062,-0.0879 h -2.974609 z m 14.742187,0.17773 -2.044922,1.0625 -0.310547,2.28125 1.691407,1.56445 0.664062,0.0879 h 4.998047 l 2.044922,-1.0625 0.310547,-2.28125 -1.691407,-1.56445 -0.664062,-0.0879 z m 15,0 -2.044922,1.0625 -0.310547,2.28125 1.691407,1.56445 0.664062,0.0879 h 4.998047 l 2.044922,-1.0625 0.310547,-2.28125 -1.691407,-1.56445 -0.664062,-0.0879 z m 15,0 -2.044922,1.0625 -0.310547,2.28125 1.691407,1.56445 0.664062,0.0879 h 4.998047 l 2.044922,-1.0625 0.310547,-2.28125 -1.691407,-1.56445 -0.664062,-0.0879 z m 15,0 -2.044922,1.0625 -0.310547,2.28125 1.691407,1.56445 0.664062,0.0879 h 4.998047 l 2.044922,-1.0625 0.310547,-2.28125 -1.691407,-1.56445 -0.664062,-0.0879 z"
       transform="matrix(0.26458334,0,0,0.26458334,0,263.13333)"
       id="path7241"
       inkscape:connector-curvature="0" />
  </g>
</svg>
