<?xml version="1.0" encoding="UTF-8" standalone="no"?>
<!-- Created with Inkscape (http://www.inkscape.org/) -->

<svg
   xmlns:dc="http://purl.org/dc/elements/1.1/"
   xmlns:cc="http://creativecommons.org/ns#"
   xmlns:rdf="http://www.w3.org/1999/02/22-rdf-syntax-ns#"
   xmlns:svg="http://www.w3.org/2000/svg"
   xmlns="http://www.w3.org/2000/svg"
   xmlns:sodipodi="http://sodipodi.sourceforge.net/DTD/sodipodi-0.dtd"
   xmlns:inkscape="http://www.inkscape.org/namespaces/inkscape"
   width="128"
   height="128"
   viewBox="0 0 33.866666 33.866668"
   version="1.1"
   id="svg8"
   inkscape:version="0.92.3 (2405546, 2018-03-11)"
   sodipodi:docname="stack-core-automation.svg">
  <defs
     id="defs2" />
  <sodipodi:namedview
     id="base"
     pagecolor="#ffffff"
     bordercolor="#666666"
     borderopacity="1.0"
     inkscape:pageopacity="0.0"
     inkscape:pageshadow="2"
     inkscape:zoom="2.8"
     inkscape:cx="60.042464"
     inkscape:cy="69.866225"
     inkscape:document-units="px"
     inkscape:current-layer="layer1"
     showgrid="false"
     units="px"
     inkscape:window-width="1918"
     inkscape:window-height="1528"
     inkscape:window-x="1913"
     inkscape:window-y="0"
     inkscape:window-maximized="0"
     inkscape:pagecheckerboard="true" />
  <metadata
     id="metadata5">
    <rdf:RDF>
      <cc:Work
         rdf:about="">
        <dc:format>image/svg+xml</dc:format>
        <dc:type
           rdf:resource="http://purl.org/dc/dcmitype/StillImage" />
        <dc:title></dc:title>
      </cc:Work>
    </rdf:RDF>
  </metadata>
  <g
     inkscape:label="Layer 1"
     inkscape:groupmode="layer"
     id="layer1"
     transform="translate(0,-263.13333)">
    <path
       style="display:inline;fill:#ffffff;stroke-width:0.26458332"
       d="m 17.023559,264.37114 c -0.357929,-0.0284 -0.727324,0.0528 -1.061499,0.24464 -0.890993,0.5143 -1.195717,1.65407 -0.681242,2.54506 0.163456,0.28312 0.39824,0.51896 0.681242,0.68223 v 2.11845 h -3.078091 c -1.128055,0.002 -2.042267,0.91677 -2.044795,2.04483 v 5.22472 c 0.0019,1.12807 0.91674,2.04222 2.044795,2.04481 h 8.019074 c 1.128092,-0.002 2.042232,-0.91674 2.044796,-2.04481 v -5.22472 c -0.0019,-1.12813 -0.916704,-2.04226 -2.044796,-2.04483 h -3.078125 v -2.11845 c 0.891028,-0.51431 1.196644,-1.65413 0.682239,-2.54512 -0.321925,-0.55654 -0.887039,-0.88468 -1.483598,-0.92689 z m -2.458669,8.85048 c 0.771659,0 1.39717,0.62572 1.39717,1.39713 0,0.7717 -0.625724,1.39713 -1.39717,1.39713 -0.771588,0 -1.397134,-0.62571 -1.397134,-1.39713 0,-0.77165 0.62576,-1.39713 1.397134,-1.39713 z m 4.657161,0 c 0.771661,0 1.397207,0.62572 1.397207,1.39713 0,0.7717 -0.625725,1.39713 -1.397207,1.39713 -0.771588,0 -1.397133,-0.62571 -1.397133,-1.39713 0,-0.77165 0.62576,-1.39713 1.397133,-1.39713 z m -9.7800099,7.45143 v 2.32858 H 6.9551677 c -1.1549428,0 -2.0912325,0.93633 -2.0912325,2.09119 v 3.87949 c -0.39297,0.12638 -0.7558479,0.33297 -1.0660219,0.60595 -1.2539058,1.10201 -1.3775478,3.01126 -0.2756307,4.26517 l 1.3971344,-1.22436 c -0.1858905,-0.21224 -0.2880946,-0.48466 -0.2880946,-0.76681 -6.055e-4,-0.64285 0.520244,-1.16463 1.1634181,-1.16517 0.6428884,-4.6e-4 1.1647,0.52025 1.1651633,1.16342 0.00104,0.28597 -0.105765,0.56174 -0.2980658,0.77309 l 1.3971706,1.23888 c 0.277767,-0.31338 0.4879081,-0.67971 0.6165009,-1.07784 0.5142963,-1.59069 -0.3575368,-3.2976 -1.9483244,-3.81216 v -3.87944 c 0,-0.12575 0.1022034,-0.22827 0.2282673,-0.22827 h 2.486909 v 10.90294 H 24.34533 v -10.90294 h 2.565929 c 0.125706,0 0.228268,0.10226 0.228268,0.22827 v 3.87944 c -1.590751,0.51431 -2.462979,2.22147 -1.948396,3.81216 0.128557,0.39823 0.339018,0.76499 0.616537,1.07784 l 1.397134,-1.2388 c -0.192656,-0.21082 -0.29949,-0.48728 -0.298065,-0.77317 4.63e-4,-0.64289 0.522238,-1.16395 1.165163,-1.16342 0.642889,4.8e-4 1.163988,0.52224 1.163417,1.16525 -2.48e-4,0.28239 -0.102203,0.55453 -0.288094,0.76677 l 1.397135,1.22432 c 1.101953,-1.25384 0.97831,-3.16316 -0.275632,-4.26517 -0.309816,-0.27206 -0.673015,-0.47867 -1.066092,-0.60595 v -3.87941 c 0,-1.1549 -0.936324,-2.0912 -2.091161,-2.0912 h -2.566001 v -2.32854 z m 5.9151619,3.52159 1.43442,5.48581 1.82105,-3.72573 1.340763,3.17631 0.893912,-0.81496 h 1.634804 v 0.93141 H 21.18772 c -0.04631,0.008 -0.0876,0.0284 -0.125348,0.0528 l -1.425374,1.45828 -1.085109,-2.57063 -2.025743,4.19148 -1.420816,-5.45849 -1.094225,2.32857 h -2.240338 v -0.93144 h 1.649085 z"
       id="path7380"
       inkscape:connector-curvature="0"
       sodipodi:nodetypes="sccccccccccccccccssssssssssscsscccccccccccssccccsscccccccccccssccccsccccccccccccccccs" />
  </g>
</svg>
