<?xml version="1.0" encoding="UTF-8" standalone="no"?>
<!-- Created with Inkscape (http://www.inkscape.org/) -->

<svg
   xmlns:dc="http://purl.org/dc/elements/1.1/"
   xmlns:cc="http://creativecommons.org/ns#"
   xmlns:rdf="http://www.w3.org/1999/02/22-rdf-syntax-ns#"
   xmlns:svg="http://www.w3.org/2000/svg"
   xmlns="http://www.w3.org/2000/svg"
   xmlns:sodipodi="http://sodipodi.sourceforge.net/DTD/sodipodi-0.dtd"
   xmlns:inkscape="http://www.inkscape.org/namespaces/inkscape"
   width="128"
   height="128"
   viewBox="0 0 33.866666 33.866668"
   version="1.1"
   id="svg8"
   inkscape:version="0.92.3 (2405546, 2018-03-11)"
   sodipodi:docname="stack-paas-jobs.svg">
  <defs
     id="defs2" />
  <sodipodi:namedview
     id="base"
     pagecolor="#ffffff"
     bordercolor="#666666"
     borderopacity="1.0"
     inkscape:pageopacity="0.0"
     inkscape:pageshadow="2"
     inkscape:zoom="2.8"
     inkscape:cx="60.042464"
     inkscape:cy="69.866225"
     inkscape:document-units="px"
     inkscape:current-layer="layer1"
     showgrid="false"
     units="px"
     inkscape:window-width="1918"
     inkscape:window-height="1528"
     inkscape:window-x="1913"
     inkscape:window-y="0"
     inkscape:window-maximized="0"
     inkscape:pagecheckerboard="true" />
  <metadata
     id="metadata5">
    <rdf:RDF>
      <cc:Work
         rdf:about="">
        <dc:format>image/svg+xml</dc:format>
        <dc:type
           rdf:resource="http://purl.org/dc/dcmitype/StillImage" />
        <dc:title></dc:title>
      </cc:Work>
    </rdf:RDF>
  </metadata>
  <g
     inkscape:label="Layer 1"
     inkscape:groupmode="layer"
     id="layer1"
     transform="translate(0,-263.13333)">
    <path
       style="display:inline;fill:#ffffff;fill-opacity:1;stroke:none;stroke-width:0.26458335;stroke-opacity:1"
       d="m 16.950366,267.41747 c -5.84597,0 -10.7693127,3.96583 -12.2051161,9.36737 H 1.0534168 l 6.5636432,6.56359 6.564304,-6.56359 h -3.658378 c 1.196528,-2.32472 3.624007,-3.93151 6.42738,-3.93151 1.811902,0 3.487183,0.68334 4.752098,1.81149 h 6.666502 c -2.01706,-4.30756 -6.393161,-7.24735 -11.4186,-7.24735 z m 9.298579,9.36737 -6.563643,6.56359 h 3.691833 c -1.196528,2.32472 -3.623447,3.93157 -6.426769,3.93157 -1.811902,0 -3.487183,-0.68401 -4.752097,-1.81221 H 5.4977514 c 2.0511767,4.30761 6.3929066,7.24807 11.4526146,7.24807 5.845971,0 10.768601,-3.96584 12.204506,-9.36743 h 3.658378 z"
       id="path7419"
       inkscape:connector-curvature="0" />
  </g>
</svg>
