<?xml version="1.0" encoding="UTF-8" standalone="no"?>
<!-- Created with Inkscape (http://www.inkscape.org/) -->

<svg
   xmlns:dc="http://purl.org/dc/elements/1.1/"
   xmlns:cc="http://creativecommons.org/ns#"
   xmlns:rdf="http://www.w3.org/1999/02/22-rdf-syntax-ns#"
   xmlns:svg="http://www.w3.org/2000/svg"
   xmlns="http://www.w3.org/2000/svg"
   xmlns:sodipodi="http://sodipodi.sourceforge.net/DTD/sodipodi-0.dtd"
   xmlns:inkscape="http://www.inkscape.org/namespaces/inkscape"
   width="128"
   height="128"
   viewBox="0 0 33.866666 33.866668"
   version="1.1"
   id="svg8"
   inkscape:version="0.92.3 (2405546, 2018-03-11)"
   sodipodi:docname="stack-security-soc.svg">
  <defs
     id="defs2" />
  <sodipodi:namedview
     id="base"
     pagecolor="#ffffff"
     bordercolor="#666666"
     borderopacity="1.0"
     inkscape:pageopacity="0.0"
     inkscape:pageshadow="2"
     inkscape:zoom="3.959798"
     inkscape:cx="109.65098"
     inkscape:cy="120.50955"
     inkscape:document-units="px"
     inkscape:current-layer="layer1"
     showgrid="false"
     units="px"
     inkscape:window-width="1918"
     inkscape:window-height="1528"
     inkscape:window-x="1913"
     inkscape:window-y="0"
     inkscape:window-maximized="0"
     inkscape:pagecheckerboard="true" />
  <metadata
     id="metadata5">
    <rdf:RDF>
      <cc:Work
         rdf:about="">
        <dc:format>image/svg+xml</dc:format>
        <dc:type
           rdf:resource="http://purl.org/dc/dcmitype/StillImage" />
        <dc:title></dc:title>
      </cc:Work>
    </rdf:RDF>
  </metadata>
  <g
     inkscape:label="Layer 1"
     inkscape:groupmode="layer"
     id="layer1"
     transform="translate(0,-263.13333)">
    <path
       style="color:#000000;font-style:normal;font-variant:normal;font-weight:normal;font-stretch:normal;font-size:medium;line-height:normal;font-family:sans-serif;font-variant-ligatures:normal;font-variant-position:normal;font-variant-caps:normal;font-variant-numeric:normal;font-variant-alternates:normal;font-feature-settings:normal;text-indent:0;text-align:start;text-decoration:none;text-decoration-line:none;text-decoration-style:solid;text-decoration-color:#000000;letter-spacing:normal;word-spacing:normal;text-transform:none;writing-mode:lr-tb;direction:ltr;text-orientation:mixed;dominant-baseline:auto;baseline-shift:baseline;text-anchor:start;white-space:normal;shape-padding:0;clip-rule:nonzero;display:inline;overflow:visible;visibility:visible;opacity:1;isolation:auto;mix-blend-mode:normal;color-interpolation:sRGB;color-interpolation-filters:linearRGB;solid-color:#000000;solid-opacity:1;vector-effect:none;fill:#fefefe;fill-opacity:1;fill-rule:nonzero;stroke:none;stroke-width:8;stroke-linecap:round;stroke-linejoin:miter;stroke-miterlimit:4;stroke-dasharray:none;stroke-dashoffset:0;stroke-opacity:1;paint-order:normal;color-rendering:auto;image-rendering:auto;shape-rendering:auto;text-rendering:auto;enable-background:accumulate"
       d="m 64.001953,11.765625 c -28.801095,0 -52.234375,23.433279 -52.234375,52.234375 10e-7,28.801096 23.43328,52.23242 52.234375,52.23242 28.801092,0 52.232417,-23.431324 52.232427,-52.23242 0,-28.801096 -23.431335,-52.234375 -52.232427,-52.234375 z M 68,19.953125 C 89.275244,21.850191 106.14981,38.724749 108.04688,60 H 99.082031 C 97.234529,43.730788 84.269214,30.765471 68,28.917969 Z m -8,0.002 v 8.962891 C 43.73169,30.766278 30.767351,43.731432 28.919922,60 H 19.955078 C 21.852081,38.725443 38.725736,21.85306 60,19.955078 Z m 0,17.023438 V 46.1875 C 53.154447,47.736274 47.737524,53.154189 46.189453,60 H 36.980469 C 38.714477,48.082912 48.08319,38.713343 60,36.978516 Z m 8,0 C 79.917718,38.712619 89.287384,48.082276 91.021484,60 H 81.8125 C 80.26429,53.153571 74.846426,47.735714 68,46.1875 Z m -3.998047,16.751953 c 5.718459,0 10.267578,4.551068 10.267578,10.269531 0,5.718463 -4.549119,10.267578 -10.267578,10.267578 -5.718463,0 -10.269531,-4.549115 -10.269531,-10.267578 0,-5.718463 4.551068,-10.269531 10.269531,-10.269531 z M 19.957031,68 h 8.962891 C 30.768158,84.267664 43.732334,97.231842 60,99.080078 v 8.962892 C 38.72643,106.14505 21.85495,89.273547 19.957031,68 Z m 17.023438,0 h 9.208984 C 47.738084,74.844931 53.155064,80.261919 60,81.810547 v 9.208984 C 48.083826,89.284802 38.7152,79.916174 36.980469,68 Z M 81.8125,68 h 9.208984 C 89.286661,79.916811 79.917082,89.285525 68,91.019531 V 81.810547 C 74.845809,80.262479 80.263731,74.845549 81.8125,68 Z m 17.269531,0 h 8.962889 C 106.14694,89.274241 89.27455,106.14792 68,108.04492 V 99.080078 C 84.268571,97.232649 97.233722,84.268307 99.082031,68 Z"
       transform="matrix(0.26458334,0,0,0.26458334,0,263.13333)"
       id="path1188"
       inkscape:connector-curvature="0" />
  </g>
</svg>
