<?xml version="1.0" encoding="UTF-8" standalone="no"?>
<!-- Generator: Adobe Illustrator 24.1.2, SVG Export Plug-In . SVG Version: 6.00 Build 0)  -->

<svg
   xmlns:dc="http://purl.org/dc/elements/1.1/"
   xmlns:cc="http://creativecommons.org/ns#"
   xmlns:rdf="http://www.w3.org/1999/02/22-rdf-syntax-ns#"
   xmlns:svg="http://www.w3.org/2000/svg"
   xmlns="http://www.w3.org/2000/svg"
   xmlns:sodipodi="http://sodipodi.sourceforge.net/DTD/sodipodi-0.dtd"
   xmlns:inkscape="http://www.inkscape.org/namespaces/inkscape"
   version="1.1"
   id="svg8"
   x="0px"
   y="0px"
   viewBox="0 0 128 128"
   style="enable-background:new 0 0 128 128;"
   xml:space="preserve"
   sodipodi:docname="cloudmarque.svg"
   inkscape:version="0.92.3 (2405546, 2018-03-11)"><metadata
   id="metadata48"><rdf:RDF><cc:Work
       rdf:about=""><dc:format>image/svg+xml</dc:format><dc:type
         rdf:resource="http://purl.org/dc/dcmitype/StillImage" /><dc:title></dc:title></cc:Work></rdf:RDF></metadata><defs
   id="defs46"><linearGradient
     id="linearGradient11742"
     gradientUnits="userSpaceOnUse"
     x1="122.72"
     y1="51.710999"
     x2="63.434299"
     y2="25.0096"
     gradientTransform="matrix(1,0,0,-1,-0.00128396,127.9616)"><stop
       offset="0"
       style="stop-color:#CFE4F4"
       id="stop6-2" /><stop
       offset="1"
       style="stop-color:#67BCE7"
       id="stop8-9" /></linearGradient><linearGradient
     id="linearGradient11746"
     gradientUnits="userSpaceOnUse"
     x1="-169.21519"
     y1="104.6585"
     x2="-154.798"
     y2="104.6585"
     gradientTransform="matrix(3.7795,0,0,-3.7795,647.6286,481.2064)"><stop
       offset="0"
       style="stop-color:#9BCDED"
       id="stop12-3" /><stop
       offset="1"
       style="stop-color:#3493BA"
       id="stop14-1" /></linearGradient><linearGradient
     id="linearGradient11750"
     gradientUnits="userSpaceOnUse"
     x1="-155.4838"
     y1="99.984901"
     x2="-167.0898"
     y2="110.6037"
     gradientTransform="matrix(3.7795,0,0,-3.7795,647.6286,481.2064)"><stop
       offset="0"
       style="stop-color:#936BAC"
       id="stop18-3" /><stop
       offset="1"
       style="stop-color:#D9CFE2"
       id="stop20-7" /></linearGradient><linearGradient
     id="linearGradient11754"
     gradientUnits="userSpaceOnUse"
     x1="-157.8105"
     y1="99.920197"
     x2="-162.299"
     y2="117.3543"
     gradientTransform="matrix(3.7795,0,0,-3.7795,647.6286,481.2064)"><stop
       offset="0"
       style="stop-color:#FAC494"
       id="stop24-1" /><stop
       offset="1"
       style="stop-color:#F7AC52"
       id="stop26-4" /></linearGradient><linearGradient
     id="linearGradient11758"
     gradientUnits="userSpaceOnUse"
     x1="-150.9015"
     y1="118.8798"
     x2="-155.20171"
     y2="100.7766"
     gradientTransform="matrix(3.7795,0,0,-3.7795,647.6286,481.2064)"><stop
       offset="0"
       style="stop-color:#FED540"
       id="stop30-6" /><stop
       offset="1"
       style="stop-color:#CDAA0B"
       id="stop32-1" /></linearGradient><linearGradient
     id="linearGradient11762"
     gradientUnits="userSpaceOnUse"
     x1="-142.3653"
     y1="114.1848"
     x2="-155.3109"
     y2="101.1918"
     gradientTransform="matrix(3.7795,0,0,-3.7795,647.6286,481.2064)"><stop
       offset="0"
       style="stop-color:#8BC15B"
       id="stop36-9" /><stop
       offset="1"
       style="stop-color:#AFD395"
       id="stop38-2" /></linearGradient><linearGradient
     gradientTransform="matrix(1,0,0,-1,-0.00128396,127.9616)"
     y2="25.0096"
     x2="63.434299"
     y1="51.710999"
     x1="122.72"
     gradientUnits="userSpaceOnUse"
     id="linearGradient11651"><stop
       id="stop11647"
       style="stop-color:#CFE4F4"
       offset="0" /><stop
       id="stop11649"
       style="stop-color:#67BCE7"
       offset="1" /></linearGradient><linearGradient
     gradientTransform="matrix(3.7795,0,0,-3.7795,647.6286,481.2064)"
     y2="104.6585"
     x2="-154.798"
     y1="104.6585"
     x1="-169.21519"
     gradientUnits="userSpaceOnUse"
     id="linearGradient11658"><stop
       id="stop11654"
       style="stop-color:#9BCDED"
       offset="0" /><stop
       id="stop11656"
       style="stop-color:#3493BA"
       offset="1" /></linearGradient><linearGradient
     gradientTransform="matrix(3.7795,0,0,-3.7795,647.6286,481.2064)"
     y2="110.6037"
     x2="-167.0898"
     y1="99.984901"
     x1="-155.4838"
     gradientUnits="userSpaceOnUse"
     id="linearGradient11665"><stop
       id="stop11661"
       style="stop-color:#936BAC"
       offset="0" /><stop
       id="stop11663"
       style="stop-color:#D9CFE2"
       offset="1" /></linearGradient><linearGradient
     gradientTransform="matrix(3.7795,0,0,-3.7795,647.6286,481.2064)"
     y2="117.3543"
     x2="-162.299"
     y1="99.920197"
     x1="-157.8105"
     gradientUnits="userSpaceOnUse"
     id="linearGradient11672"><stop
       id="stop11668"
       style="stop-color:#FAC494"
       offset="0" /><stop
       id="stop11670"
       style="stop-color:#F7AC52"
       offset="1" /></linearGradient><linearGradient
     gradientTransform="matrix(3.7795,0,0,-3.7795,647.6286,481.2064)"
     y2="100.7766"
     x2="-155.20171"
     y1="118.8798"
     x1="-150.9015"
     gradientUnits="userSpaceOnUse"
     id="linearGradient11679"><stop
       id="stop11675"
       style="stop-color:#FED540"
       offset="0" /><stop
       id="stop11677"
       style="stop-color:#CDAA0B"
       offset="1" /></linearGradient><linearGradient
     gradientTransform="matrix(3.7795,0,0,-3.7795,647.6286,481.2064)"
     y2="101.1918"
     x2="-155.3109"
     y1="114.1848"
     x1="-142.3653"
     gradientUnits="userSpaceOnUse"
     id="linearGradient11686"><stop
       id="stop11682"
       style="stop-color:#8BC15B"
       offset="0" /><stop
       id="stop11684"
       style="stop-color:#AFD395"
       offset="1" /></linearGradient></defs>
<style
   type="text/css"
   id="style2">
	.st0{fill:#FFFFFF;}
	.st1{fill:url(#path815-6-9-1-5-4-8_1_);}
	.st2{fill:url(#path815-7_1_);}
	.st3{fill:url(#path815-6-2_1_);}
	.st4{fill:url(#path815-6-9-1-4_1_);}
	.st5{fill:url(#path815-6-9-1-5-9_1_);}
	.st6{fill:url(#path815-6-9-1-5-4-6_1_);}
</style>
<sodipodi:namedview
   bordercolor="#666666"
   borderopacity="1.0"
   id="base"
   inkscape:current-layer="svg8"
   inkscape:cx="-278.67729"
   inkscape:cy="73.1338"
   inkscape:document-units="px"
   inkscape:pagecheckerboard="true"
   inkscape:pageopacity="0.0"
   inkscape:pageshadow="2"
   inkscape:window-height="1537"
   inkscape:window-maximized="1"
   inkscape:window-width="3840"
   inkscape:window-x="-8"
   inkscape:window-y="-8"
   inkscape:zoom="2.8"
   pagecolor="#ffffff"
   showgrid="false"
   units="px"
   inkscape:object-nodes="false">
	</sodipodi:namedview>
<g
   id="g43">
	<path
   id="path815-6-1"
   inkscape:connector-curvature="0"
   class="st0"
   d="m 62.5,28.3 c -16,0 -29.3,12.9 -30.2,29.4 -1,-0.1 -1.9,-0.2 -2.9,-0.2 -11.9,0 -21.6,9.7 -21.6,21.6 0,0 0,0 0,0 0,11.5 9.1,21 20.5,21.5 v 0.1 h 1 63.1 v 0 c 0.2,0 0.4,0 0.6,0 15,0 27,-12.4 27,-27.7 0,-15.3 -12,-27.6 -26.8,-27.6 0,0 0,0 0,0 -1.2,0 -2.4,0.1 -3.6,0.3 C 84.6,35 74.1,28.3 62.5,28.3 Z"
   style="fill:#ffffff" />
	
		<linearGradient
   id="path815-6-9-1-5-4-8_1_"
   gradientUnits="userSpaceOnUse"
   x1="122.72"
   y1="51.710999"
   x2="63.434299"
   y2="25.0096"
   gradientTransform="matrix(1,0,0,-1,-0.00128396,127.9616)">
		<stop
   offset="0"
   style="stop-color:#CFE4F4"
   id="stop6" />
		<stop
   offset="1"
   style="stop-color:#67BCE7"
   id="stop8" />
	</linearGradient>
	<path
   id="path815-6-9-1-5-4-8"
   inkscape:connector-curvature="0"
   sodipodi:nodetypes="cccccccccc"
   class="st1"
   d="m 118.7,64.4 -56.3,36.2 h 30.2 v 0 c 0.2,0 0.4,0 0.6,0 C 108,100.7 120,88.3 120,73 c 0.1,-3.5 -0.7,-6.1 -1.3,-8.6 z m -56.3,36.3 z"
   style="fill:url(#path815-6-9-1-5-4-8_1_)" />
	
		<linearGradient
   id="path815-7_1_"
   gradientUnits="userSpaceOnUse"
   x1="-169.21519"
   y1="104.6585"
   x2="-154.798"
   y2="104.6585"
   gradientTransform="matrix(3.7795,0,0,-3.7795,647.6286,481.2064)">
		<stop
   offset="0"
   style="stop-color:#9BCDED"
   id="stop12" />
		<stop
   offset="1"
   style="stop-color:#3493BA"
   id="stop14" />
	</linearGradient>
	<path
   id="path815-7"
   inkscape:connector-curvature="0"
   class="st2"
   d="M 9.8,70.6 C 8.6,73.3 8,76.2 8,79.1 c 0,11.5 9.1,21 20.5,21.5 v 0.1 h 1 32.9 z"
   style="fill:url(#path815-7_1_)" />
	
		<linearGradient
   id="path815-6-2_1_"
   gradientUnits="userSpaceOnUse"
   x1="-155.4838"
   y1="99.984901"
   x2="-167.0898"
   y2="110.6037"
   gradientTransform="matrix(3.7795,0,0,-3.7795,647.6286,481.2064)">
		<stop
   offset="0"
   style="stop-color:#936BAC"
   id="stop18" />
		<stop
   offset="1"
   style="stop-color:#D9CFE2"
   id="stop20" />
	</linearGradient>
	<path
   id="path815-6-2"
   inkscape:connector-curvature="0"
   class="st3"
   d="m 29.7,57.5 c -8.6,0 -16.4,5.2 -19.8,13.1 l 52.7,30.1 -30.2,-43 C 31.5,57.6 30.6,57.5 29.7,57.5 Z M 9.1,72.7 c -0.2,0.6 -0.3,1.1 -0.4,1.7 0,-0.6 0.2,-1.1 0.4,-1.7 z m -0.6,2.2 c -0.1,0.5 -0.2,1 -0.2,1.5 0,-0.5 0.1,-1 0.2,-1.5 z"
   style="fill:url(#path815-6-2_1_)" />
	
		<linearGradient
   id="path815-6-9-1-4_1_"
   gradientUnits="userSpaceOnUse"
   x1="-157.8105"
   y1="99.920197"
   x2="-162.299"
   y2="117.3543"
   gradientTransform="matrix(3.7795,0,0,-3.7795,647.6286,481.2064)">
		<stop
   offset="0"
   style="stop-color:#FAC494"
   id="stop24" />
		<stop
   offset="1"
   style="stop-color:#F7AC52"
   id="stop26" />
	</linearGradient>
	<path
   id="path815-6-9-1-4"
   inkscape:connector-curvature="0"
   class="st4"
   d="m 62.5,28.3 c -16,0 -29.3,12.9 -30.2,29.4 -0.1,0 -0.1,0 -0.2,0 l 30.2,43 z M 30.1,57.5 c 0.7,0 1.4,0.1 2,0.2 -0.7,-0.1 -1.4,-0.2 -2,-0.2 z m -7,1 c -0.6,0.2 -1.1,0.4 -1.7,0.6 0.6,-0.3 1.2,-0.5 1.7,-0.6 z m -1.7,0.6 c -0.3,0.1 -0.7,0.3 -1,0.4 0.4,-0.1 0.7,-0.3 1,-0.4 z m -1,0.4 c -0.3,0.1 -0.6,0.3 -1,0.5 0.4,-0.2 0.7,-0.3 1,-0.5 z M 19.5,60 c -0.3,0.2 -0.6,0.4 -1,0.5 0.4,-0.2 0.7,-0.3 1,-0.5 z m -1,0.5 c -0.3,0.2 -0.6,0.4 -0.9,0.5 0.3,-0.1 0.6,-0.3 0.9,-0.5 z m -0.9,0.6 c -0.3,0.2 -0.6,0.4 -0.9,0.7 0.3,-0.3 0.6,-0.5 0.9,-0.7 z m -0.9,0.6 c -0.3,0.2 -0.5,0.4 -0.8,0.6 0.3,-0.2 0.5,-0.4 0.8,-0.6 z m -0.8,0.6 c -0.3,0.2 -0.6,0.5 -0.9,0.8 0.3,-0.3 0.6,-0.5 0.9,-0.8 z M 15,63.1 c -0.3,0.2 -0.5,0.5 -0.7,0.7 0.3,-0.3 0.5,-0.5 0.7,-0.7 z m -0.7,0.7 c -0.3,0.3 -0.5,0.6 -0.8,0.9 0.3,-0.4 0.5,-0.6 0.8,-0.9 z m -0.8,0.8 c -0.2,0.2 -0.4,0.5 -0.7,0.7 0.3,-0.2 0.5,-0.4 0.7,-0.7 z m -0.6,0.8 c -0.2,0.3 -0.5,0.6 -0.7,0.9 0.2,-0.3 0.4,-0.6 0.7,-0.9 z m -0.7,0.9 c -0.2,0.3 -0.4,0.5 -0.6,0.8 0.2,-0.3 0.4,-0.5 0.6,-0.8 z m -0.6,0.8 c -0.1,0.2 -0.2,0.4 -0.4,0.6 v 0 c 0.1,-0.2 0.3,-0.4 0.4,-0.6 z"
   style="fill:url(#path815-6-9-1-4_1_)" />
	
		<linearGradient
   id="path815-6-9-1-5-9_1_"
   gradientUnits="userSpaceOnUse"
   x1="-150.9015"
   y1="118.8798"
   x2="-155.20171"
   y2="100.7766"
   gradientTransform="matrix(3.7795,0,0,-3.7795,647.6286,481.2064)">
		<stop
   offset="0"
   style="stop-color:#FED540"
   id="stop30" />
		<stop
   offset="1"
   style="stop-color:#CDAA0B"
   id="stop32" />
	</linearGradient>
	<path
   id="path815-6-9-1-5-9"
   inkscape:connector-curvature="0"
   class="st5"
   d="m 62.5,28.3 -0.1,72.4 27.2,-55 C 84.6,35 74.1,28.3 62.5,28.3 Z"
   style="fill:url(#path815-6-9-1-5-9_1_)" />
	
		<linearGradient
   id="path815-6-9-1-5-4-6_1_"
   gradientUnits="userSpaceOnUse"
   x1="-142.3653"
   y1="114.1848"
   x2="-155.3109"
   y2="101.1918"
   gradientTransform="matrix(3.7795,0,0,-3.7795,647.6286,481.2064)">
		<stop
   offset="0"
   style="stop-color:#8BC15B"
   id="stop36" />
		<stop
   offset="1"
   style="stop-color:#AFD395"
   id="stop38" />
	</linearGradient>
	<path
   id="path815-6-9-1-5-4-6"
   inkscape:connector-curvature="0"
   class="st6"
   d="m 93.2,45.4 c -1.2,0 -2.4,0.1 -3.6,0.3 l -27.2,55 v 0 l 56.3,-36.3 c -3.6,-11.3 -13.9,-19 -25.5,-19 z"
   style="fill:url(#path815-6-9-1-5-4-6_1_)" />
	<path
   id="rect5594"
   inkscape:connector-curvature="0"
   sodipodi:nodetypes="cccccccc"
   class="st0"
   d="M 95.3,28.1 61.9,83.9 42.2,69.1 38,74.8 62.5,100.7 h 3.7 L 97.1,34.4 Z"
   style="fill:#ffffff" />
</g>
</svg>