<?xml version="1.0" encoding="UTF-8" standalone="no"?>
<svg
   xmlns:dc="http://purl.org/dc/elements/1.1/"
   xmlns:cc="http://creativecommons.org/ns#"
   xmlns:rdf="http://www.w3.org/1999/02/22-rdf-syntax-ns#"
   xmlns:svg="http://www.w3.org/2000/svg"
   xmlns="http://www.w3.org/2000/svg"
   xmlns:sodipodi="http://sodipodi.sourceforge.net/DTD/sodipodi-0.dtd"
   xmlns:inkscape="http://www.inkscape.org/namespaces/inkscape"
   id="svg8"
   viewBox="0 0 128 128"
   version="1.1"
   sodipodi:docname="devops.svg"
   inkscape:version="0.92.3 (2405546, 2018-03-11)">
  <metadata
     id="metadata3634">
    <rdf:RDF>
      <cc:Work
         rdf:about="">
        <dc:format>image/svg+xml</dc:format>
        <dc:type
           rdf:resource="http://purl.org/dc/dcmitype/StillImage" />
        <dc:title></dc:title>
      </cc:Work>
    </rdf:RDF>
  </metadata>
  <sodipodi:namedview
     pagecolor="#ffffff"
     bordercolor="#666666"
     borderopacity="1"
     objecttolerance="10"
     gridtolerance="10"
     guidetolerance="10"
     inkscape:pageopacity="0"
     inkscape:pageshadow="2"
     inkscape:window-width="999"
     inkscape:window-height="480"
     id="namedview3632"
     showgrid="false"
     inkscape:zoom="1.84375"
     inkscape:cx="64"
     inkscape:cy="64"
     inkscape:window-x="0"
     inkscape:window-y="0"
     inkscape:window-maximized="0"
     inkscape:current-layer="svg8" />
  <defs
     id="defs3627">
    <style
       id="style3615">.cls-1{fill:url(#linear-gradient);}.cls-2{fill:url(#linear-gradient-2);}</style>
    <linearGradient
       id="linear-gradient"
       x1="60.15"
       y1="60.35"
       x2="128.34"
       y2="68.26"
       gradientUnits="userSpaceOnUse">
      <stop
         offset="0"
         stop-color="#936bac"
         id="stop3617" />
      <stop
         offset="1"
         stop-color="#d9cfe2"
         id="stop3619" />
    </linearGradient>
    <linearGradient
       id="linear-gradient-2"
       x1="145.85"
       y1="199.36"
       x2="217.05"
       y2="199.36"
       gradientTransform="matrix(0.87, 0, 0, -0.87, -118.95, 237.39)"
       gradientUnits="userSpaceOnUse">
      <stop
         offset="0"
         stop-color="#9bcded"
         id="stop3622" />
      <stop
         offset="1"
         stop-color="#3493ba"
         id="stop3624" />
    </linearGradient>
  </defs>
  <path
     id="path7716-3"
     class="cls-1"
     d="M91.62,35.52h-.94l7.13,9.3-5.55,7.23a11.8,11.8,0,0,1,11.07,9.48L112,68.18,120,62a28.62,28.62,0,0,0-28.41-26.5ZM89,35.64A28.43,28.43,0,0,0,71.52,43.9L67,48.82l10.83,12,5.27-5.31a11.82,11.82,0,0,1,7.29-3.41L96,44.83ZM71,59.87,60.65,61.23,59.4,70.74l8.89,9.81h0l3.23,3.55A28.39,28.39,0,0,0,94.84,92.3l-6.9-9,5.77-7.53a12.12,12.12,0,0,1-10.57-3.29l-8.34-8.4Zm32.58,3.65c0,.16,0,.32,0,.48A11.83,11.83,0,0,1,96,75.16l-6.25,8.15,6.71,8.76A28.64,28.64,0,0,0,120.1,64v-.23L112,70Z" />
  <path
     id="path7716-2"
     class="cls-2"
     d="M36.38,35.52A28.62,28.62,0,0,0,8,62l8.11,6.22,8.57-6.57a11.81,11.81,0,0,1,11.73-9.56h.23L30.75,44.4l6.78-8.86-1.15,0Zm2.86.14L32.55,44.4l6,7.84a11.74,11.74,0,0,1,6.3,3.27L53.25,64l4.89,5.39L59.38,60l10.44-1.38L64,52.15h0l-7.52-8.27a28.47,28.47,0,0,0-17.24-8.23ZM24.43,63.58,16.08,70,7.9,63.71V64A28.64,28.64,0,0,0,32.23,92.18l6.41-8.36L32,75.15A11.82,11.82,0,0,1,24.42,64c0-.14,0-.28,0-.42ZM50.11,67.2l-5.25,5.29A11.9,11.9,0,0,1,36.38,76a12.06,12.06,0,0,1-2.1-.18l6.16,8-6.55,8.55c.82.07,1.65.11,2.49.11a28.37,28.37,0,0,0,20.1-8.38L61,79.17Z" />
</svg>
