<?xml version="1.0" encoding="UTF-8" standalone="no"?>
<!-- Generator: Adobe Illustrator 24.1.2, SVG Export Plug-In . SVG Version: 6.00 Build 0)  -->

<svg
   xmlns:dc="http://purl.org/dc/elements/1.1/"
   xmlns:cc="http://creativecommons.org/ns#"
   xmlns:rdf="http://www.w3.org/1999/02/22-rdf-syntax-ns#"
   xmlns:svg="http://www.w3.org/2000/svg"
   xmlns="http://www.w3.org/2000/svg"
   xmlns:xlink="http://www.w3.org/1999/xlink"
   xmlns:sodipodi="http://sodipodi.sourceforge.net/DTD/sodipodi-0.dtd"
   xmlns:inkscape="http://www.inkscape.org/namespaces/inkscape"
   inkscape:version="0.92.3 (2405546, 2018-03-11)"
   sodipodi:docname="tools.svg"
   xml:space="preserve"
   style="enable-background:new 0 0 128 128;"
   viewBox="0 0 128 128"
   y="0px"
   x="0px"
   id="svg8"
   version="1.1"><sodipodi:namedview
   inkscape:object-nodes="true"
   units="px"
   showgrid="false"
   pagecolor="#ffffff"
   inkscape:zoom="1.4"
   inkscape:window-y="247"
   inkscape:window-x="302"
   inkscape:window-width="2636"
   inkscape:window-maximized="0"
   inkscape:window-height="1089"
   inkscape:pageshadow="2"
   inkscape:pageopacity="0.0"
   inkscape:pagecheckerboard="true"
   inkscape:document-units="px"
   inkscape:cy="125.26946"
   inkscape:cx="-361.27613"
   inkscape:current-layer="svg8"
   id="base"
   borderopacity="1.0"
   bordercolor="#666666"
   showguides="true"
   inkscape:guide-bbox="true"
   inkscape:snap-others="false">
	</sodipodi:namedview><metadata
   id="metadata48"><rdf:RDF><cc:Work
       rdf:about=""><dc:format>image/svg+xml</dc:format><dc:type
         rdf:resource="http://purl.org/dc/dcmitype/StillImage" /><dc:title></dc:title></cc:Work></rdf:RDF></metadata><defs
   id="defs46"><linearGradient
   gradientTransform="matrix(3.7795,0,0,-3.7795,782.57703,337.11833)"
   y2="117.3543"
   x2="-162.299"
   y1="99.920197"
   x1="-157.8105"
   gradientUnits="userSpaceOnUse"
   id="linearGradient7716">
	<stop
   offset="0"
   style="stop-color:#F7AC52"
   id="stop7714" />
		<stop
   offset="1"
   style="stop-color:#f9b980;stop-opacity:1"
   id="stop7712" />
		</linearGradient><linearGradient
   gradientTransform="matrix(3.7795,0,0,-3.7795,782.57703,337.11833)"
   y2="100.7766"
   x2="-155.20171"
   y1="118.8798"
   x1="-150.9015"
   gradientUnits="userSpaceOnUse"
   id="linearGradient2706">
		<stop
   id="stop2702"
   style="stop-color:#d8b10d;stop-opacity:1"
   offset="0" />
		<stop
   id="stop2704"
   style="stop-color:#fdde6f;stop-opacity:1"
   offset="1" />
	</linearGradient><linearGradient
   gradientTransform="matrix(3.7795,0,0,-3.7795,782.57703,337.11833)"
   y2="104.6585"
   x2="-154.798"
   y1="104.6585"
   x1="-169.21519"
   gradientUnits="userSpaceOnUse"
   id="linearGradient2699">
		<stop
   id="stop2695"
   style="stop-color:#9BCDED"
   offset="0" />
		<stop
   id="stop2697"
   style="stop-color:#d2ccf4;stop-opacity:1"
   offset="1" />
	</linearGradient><linearGradient
   id="linearGradient1906"
   inkscape:collect="always"><stop
     id="stop1902"
     offset="0"
     style="stop-color:#000000;stop-opacity:0.11734694" /><stop
     id="stop1904"
     offset="1"
     style="stop-color:#000000;stop-opacity:0.12755102" /></linearGradient>
	
	
		<linearGradient
   id="path815-6-9-1-5-4-8_1_"
   gradientUnits="userSpaceOnUse"
   x1="122.72"
   y1="51.710999"
   x2="63.434299"
   y2="25.0096"
   gradientTransform="matrix(1,0,0,-1,-190.32198,144.48778)">
		<stop
   offset="0"
   style="stop-color:#CFE4F4"
   id="stop6" />
		<stop
   offset="1"
   style="stop-color:#67BCE7"
   id="stop8" />
	</linearGradient>
	
	
		<linearGradient
   id="path815-7_1_"
   gradientUnits="userSpaceOnUse"
   x1="-169.21519"
   y1="104.6585"
   x2="-154.798"
   y2="104.6585"
   gradientTransform="matrix(3.7795,0,0,-3.7795,782.57703,337.11833)">
		<stop
   offset="0"
   style="stop-color:#9BCDED"
   id="stop12" />
		<stop
   offset="1"
   style="stop-color:#3493BA"
   id="stop14" />
	</linearGradient>
	
	
		<linearGradient
   id="path815-6-2_1_"
   gradientUnits="userSpaceOnUse"
   x1="-155.4838"
   y1="99.984901"
   x2="-167.0898"
   y2="110.6037"
   gradientTransform="matrix(3.7795,0,0,-3.7795,782.57703,337.11833)">
		<stop
   offset="0"
   style="stop-color:#936BAC"
   id="stop18" />
		<stop
   offset="1"
   style="stop-color:#D9CFE2"
   id="stop20" />
	</linearGradient>
	
	
		<linearGradient
   id="path815-6-9-1-4_1_"
   gradientUnits="userSpaceOnUse"
   x1="-157.8105"
   y1="99.920197"
   x2="-162.299"
   y2="117.3543"
   gradientTransform="matrix(3.7795,0,0,-3.7795,782.57703,337.11833)">
		<stop
   offset="0"
   style="stop-color:#FAC494"
   id="stop24" />
		<stop
   offset="1"
   style="stop-color:#F7AC52"
   id="stop26" />
	</linearGradient>
	
	
		<linearGradient
   id="path815-6-9-1-5-9_1_"
   gradientUnits="userSpaceOnUse"
   x1="-150.9015"
   y1="118.8798"
   x2="-155.20171"
   y2="100.7766"
   gradientTransform="matrix(3.7795,0,0,-3.7795,782.57703,337.11833)">
		<stop
   offset="0"
   style="stop-color:#FED540"
   id="stop30" />
		<stop
   offset="1"
   style="stop-color:#CDAA0B"
   id="stop32" />
	</linearGradient>
	
	
		<linearGradient
   id="path815-6-9-1-5-4-6_1_"
   gradientUnits="userSpaceOnUse"
   x1="-142.3653"
   y1="114.1848"
   x2="-155.3109"
   y2="101.1918"
   gradientTransform="matrix(3.7795,0,0,-3.7795,782.57703,337.11833)">
		<stop
   offset="0"
   style="stop-color:#8BC15B"
   id="stop36" />
		<stop
   offset="1"
   style="stop-color:#AFD395"
   id="stop38" />
	</linearGradient>
	
	
<linearGradient
   inkscape:collect="always"
   id="linearGradient863"><stop
     style="stop-color:#3135ce;stop-opacity:1"
     offset="0"
     id="stop859" /><stop
     style="stop-color:#01e4ff;stop-opacity:1"
     offset="1"
     id="stop861" /></linearGradient><linearGradient
   inkscape:collect="always"
   xlink:href="#linearGradient863"
   id="linearGradient865"
   x1="113.01218"
   y1="179.91591"
   x2="114.91898"
   y2="52.065453"
   gradientUnits="userSpaceOnUse"
   gradientTransform="matrix(1.0620815,0,0,1.0620815,34.069633,-53.068719)" /><linearGradient
   gradientTransform="matrix(1.2894589,0,0,1.2894589,-29.084268,-26.182691)"
   gradientUnits="userSpaceOnUse"
   y2="70.137054"
   x2="100.08072"
   y1="61.907612"
   x1="42.178253"
   id="linearGradient3215"
   xlink:href="#path815-6-9-1-4_1_"
   inkscape:collect="always" /><linearGradient
   inkscape:collect="always"
   xlink:href="#path815-6-2_1_"
   id="linearGradient1922"
   x1="-165.5088"
   y1="6.6216359"
   x2="-57.797424"
   y2="6.6216359"
   gradientUnits="userSpaceOnUse"
   gradientTransform="matrix(0.49310105,-0.02558265,0.02558265,0.49310105,49.509398,27.133236)" /><radialGradient
   gradientUnits="userSpaceOnUse"
   gradientTransform="matrix(-0.13534092,-2.0713839,1.6302277,-0.10651655,-32.453146,317.93414)"
   r="22.232529"
   fy="93.453491"
   fx="103.77877"
   cy="93.453491"
   cx="103.77877"
   id="radialGradient7710"
   xlink:href="#linearGradient7716"
   inkscape:collect="always" /><linearGradient
   inkscape:collect="always"
   xlink:href="#linearGradient1906"
   id="linearGradient1900-2-0-1"
   x1="-158.88589"
   y1="11.862627"
   x2="-87.842979"
   y2="11.862627"
   gradientUnits="userSpaceOnUse"
   gradientTransform="matrix(0.08579417,0,0,0.08579417,-7314.6323,91.828635)" /><linearGradient
   id="linear-gradient"
   x1="60.150002"
   y1="60.349998"
   x2="128.34"
   y2="68.260002"
   gradientUnits="userSpaceOnUse"><stop
     offset="0"
     stop-color="#936bac"
     id="stop9241" /><stop
     offset="1"
     stop-color="#d9cfe2"
     id="stop9243" /></linearGradient><linearGradient
   id="linear-gradient-2"
   x1="145.85001"
   y1="199.36"
   x2="217.05"
   y2="199.36"
   gradientTransform="matrix(0.87,0,0,-0.87,-118.95,237.39)"
   gradientUnits="userSpaceOnUse"><stop
     offset="0"
     stop-color="#9bcded"
     id="stop9246" /><stop
     offset="1"
     stop-color="#3493ba"
     id="stop9248" /></linearGradient></defs>
<style
   id="style2"
   type="text/css">
	.st0{fill:#FFFFFF;}
	.st1{fill:url(#path815-6-9-1-5-4-8_1_);}
	.st2{fill:url(#path815-7_1_);}
	.st3{fill:url(#path815-6-2_1_);}
	.st4{fill:url(#path815-6-9-1-4_1_);}
	.st5{fill:url(#path815-6-9-1-5-9_1_);}
	.st6{fill:url(#path815-6-9-1-5-4-6_1_);}
</style>

<path
   cx="64.631752"
   cy="61.730782"
   r="39.37455"
   id="path3207"
   style="opacity:1;fill:url(#linearGradient3215);fill-opacity:1;stroke:none;stroke-width:0.99999994;stroke-linecap:butt;stroke-linejoin:round;stroke-miterlimit:4;stroke-dasharray:0.99999995, 0.99999994999999997;stroke-dashoffset:0;stroke-opacity:1;paint-order:normal" />
<circle
   r="2.2099628"
   cy="92.846382"
   cx="-7325.2163"
   id="path862-9-0-2-5"
   style="opacity:1;fill:none;fill-opacity:1;stroke:url(#linearGradient1900-2-0-1);stroke-width:2;stroke-linecap:butt;stroke-linejoin:round;stroke-miterlimit:4;stroke-dasharray:none;stroke-dashoffset:0;stroke-opacity:1;paint-order:normal" /><g
   id="g8918"
   transform="matrix(0.99006737,0,0,0.99006737,3.0149584,2.3253568)"
   style="stroke-width:1.0100323"><path
     sodipodi:nodetypes="csscccccccccccccccccccccccccccccccccc"
     id="rect7977-7-48"
     d="m 31.429412,59.764179 c -0.30117,0.02924 -0.498228,0.259735 -0.498228,0.651888 v 7.645746 c 0,0.627452 0.504045,1.422677 1.131489,1.784935 l 4.806916,2.775192 c 0.02646,0.01716 0.04911,0.04339 0.07605,0.05897 l 7.644189,4.41423 c 0.04887,0.02821 0.09561,0.04697 0.142797,0.06826 l 6.067238,3.501581 c 0.01295,0.0072 0.02448,0.01168 0.03727,0.0186 l 3.113545,1.797356 c 0.0087,0.0056 0.01613,0.01359 0.02479,0.0186 l 8.922919,4.875423 0.02645,-9.6 -6.211581,-3.60579 c -0.0087,-0.0056 -0.01613,-0.01359 -0.02479,-0.0186 L 49.04272,69.73634 c -0.0091,-0.0056 -0.01724,-0.0056 -0.02638,-0.01089 l -5.860804,-3.383619 c -0.03417,-0.01971 -0.06445,-0.02559 -0.09778,-0.04188 l -3.279594,-1.893615 c -0.0244,-0.01566 -0.04506,-0.04005 -0.06985,-0.05436 L 32.062574,59.937754 C 31.827276,59.801911 31.610009,59.74637 31.429305,59.763917 Z m -0.467187,11.338235 c -0.01772,0.06961 -0.03107,0.144362 -0.03107,0.229712 0.177516,11.051266 0.0016,10.193729 0.0016,-0.0016 0,-0.08478 0.012,-0.159008 0.02948,-0.228162 z m 11.091477,6.400935 c -0.01844,0.07073 -0.03107,0.145833 -0.03107,0.232819 0.01462,10.3172 0.0016,10.325711 0.0016,0 0,-0.08648 0.01136,-0.162497 0.02948,-0.232819 z m 10.858626,6.152604 c -0.0048,0.0097 -0.0099,0.0178 -0.01399,0.02797 0.004,-0.01033 0.0098,-0.01812 0.01399,-0.02797 z"
     style="opacity:1;fill:#f8b266;fill-opacity:1;stroke:none;stroke-width:2.02006459;stroke-linecap:butt;stroke-linejoin:round;stroke-miterlimit:4;stroke-dasharray:none;stroke-dashoffset:0;stroke-opacity:1;paint-order:normal"
     inkscape:connector-curvature="0" /><path
     sodipodi:nodetypes="cccccccccccccccsscccccscsscscccscccccsscccccccccccccccccccccc"
     id="rect7977-4-1"
     d="m 20.091867,40.717321 0.01775,10.182347 c 0.649835,2.232442 3.113971,2.929962 5.061462,4.054137 0.04506,0.03142 0.08381,0.07556 0.130378,0.102439 l 7.645741,4.414229 c 0.08581,0.04954 0.16808,0.08644 0.248339,0.114857 l 6.512694,3.760785 c 0.627443,0.36225 1.131495,0.149399 1.131496,-0.478053 l -0.07096,-9.809838 z m 0.154326,12.990132 c -5.835716,39.464331 -2.917858,19.732164 0,0 z m 22.909285,1.719748 c 28.821124,50.106789 14.410562,25.053395 0,0 z m 10.275253,5.52355 c -0.543137,-0.429469 -0.588475,-1.514113 -0.588475,1.201785 v 7.64574 c 0,0.627446 0.505604,1.424232 1.133047,1.78649 l 8.880136,5.006249 -0.02876,-10.323421 z m -22.001516,9.72913 c -0.30117,0.02924 -0.49823,0.258176 -0.49823,0.650337 v 5.634195 c -0.0077,0.04904 -0.02018,0.09332 -0.02018,0.149003 v 7.645741 c 0,0.06787 0.0088,0.138469 0.02018,0.209536 v 4.921771 c 0,0.627444 0.504043,1.424236 1.131495,1.786485 l 7.64574,4.41423 c 0.627444,0.36225 1.131495,0.147844 1.131496,-0.479608 v -7.644183 c 0,-0.06284 -0.0089,-0.12838 -0.01863,-0.194015 v -1.958775 l 2.312658,1.334823 c 0.0077,0.0046 0.01399,0.0126 0.02173,0.01707 l 7.64419,4.41423 c 0.627451,0.362249 1.133047,0.149393 1.133047,-0.478051 v -7.645745 c 0,-0.627436 -0.505596,-1.42424 -1.133047,-1.786489 l -5.503818,-3.177189 c -0.0099,-0.006 -0.01802,-0.016 -0.02794,-0.02173 L 37.622165,74.05729 c -0.01075,-0.0062 -0.02037,-0.0065 -0.03104,-0.01242 l -5.528649,-3.19271 c -0.235299,-0.135843 -0.452562,-0.189832 -0.633265,-0.172285 z m -2.542372,9.253736 c 0.156863,0.09056 0.306765,0.209149 0.442354,0.34457 -0.135811,-0.13578 -0.285165,-0.253817 -0.442354,-0.34457 z m 24.455196,3.396035 c -0.150585,0.01462 -0.276138,0.08044 -0.363196,0.190911 0.08706,-0.110469 0.212611,-0.174737 0.363196,-0.189359 0.09035,-0.0088 0.190014,-6.86e-4 0.296455,0.02794 -0.106441,-0.02862 -0.206108,-0.03826 -0.296455,-0.02949 z m -10.821378,4.668776 c 0.180704,-0.01756 0.399527,0.03799 0.634817,0.173837 l 7.644189,4.412676 -7.644189,-4.414228 c -0.23529,-0.135851 -0.454113,-0.18984 -0.634817,-0.172285 z"
     style="opacity:1;fill:#9bc974;fill-opacity:1;stroke:none;stroke-width:2.02006459;stroke-linecap:butt;stroke-linejoin:round;stroke-miterlimit:4;stroke-dasharray:none;stroke-dashoffset:0;stroke-opacity:1;paint-order:normal"
     inkscape:connector-curvature="0" /><path
     sodipodi:nodetypes="sscssccsscsccssccssccssccscsccscccscscccccssccccccccccc"
     id="rect7977-8-7"
     d="m 20.609768,53.51675 c -0.301171,0.02924 -0.499782,0.259735 -0.499782,0.651888 v 4.690503 c -4.2e-5,0.004 -0.0016,0.0072 -0.0016,0.01089 v 7.645746 c 0,0.0048 0.0015,0.01049 0.0016,0.0155 v 2.742594 c -0.0077,0.04903 -0.02018,0.09332 -0.02018,0.149003 v 7.645738 c 0,0.06787 0.0088,0.138474 0.02018,0.209535 v 6.365246 c 0,0.627444 0.505601,1.424235 1.133047,1.786492 l 7.644189,4.414222 c 0.627445,0.362257 1.133047,0.147843 1.133047,-0.4796 v -7.644189 c 0,-0.06787 -0.0088,-0.138466 -0.02018,-0.209534 v -2.874528 c 0.01129,-0.05785 0.02018,-0.118543 0.02018,-0.186258 v -7.644189 c 0,-0.0048 -0.0015,-0.01049 -0.0016,-0.0155 v -3.240822 c 6.6e-5,-0.0048 0.0016,-0.0089 0.0016,-0.01399 v -7.645746 c 0,-0.627444 -0.505602,-1.424235 -1.133047,-1.786484 L 21.243033,53.690586 C 21.007741,53.554743 20.79047,53.499202 20.609768,53.516749 Z m 21.413042,0.324257 v 9.710194 c 0,0.627443 0.505602,1.424234 1.133047,1.786492 l 7.644193,4.412672 c 0.627444,0.362249 1.133047,0.149393 1.133047,-0.478051 v -9.710193 z m 11.319605,29.488852 c -0.301162,0.02924 -0.499777,0.261292 -0.499777,0.653446 v 4.743277 c -0.0087,0.05181 -0.0217,0.100464 -0.0217,0.159867 v 4.879863 l -1.944809,-1.122183 c -0.02646,-0.01716 -0.04911,-0.04339 -0.07605,-0.05897 l -7.644193,-4.414241 c -0.235292,-0.135851 -0.454114,-0.191392 -0.634817,-0.173837 -0.301172,0.02924 -0.49823,0.261284 -0.49823,0.653438 v 7.644191 c 0,0.627444 0.505602,1.424243 1.133047,1.786492 l 6.427331,3.711118 c 0.02797,0.0182 0.05213,0.0456 0.08071,0.0621 l 7.645738,4.41423 c 0.05213,0.0301 0.10187,0.0491 0.15211,0.0714 l 4.159677,2.40269 c 0.627444,0.36225 1.05793,0.48298 1.294097,0.46782 l -0.0047,-20.490837 -8.935146,-5.216076 C 53.740412,83.367796 53.523138,83.312255 53.342434,83.32981 Z"
     style="opacity:1;fill:#edcb46;fill-opacity:1;stroke:none;stroke-width:2.02006459;stroke-linecap:butt;stroke-linejoin:round;stroke-miterlimit:4;stroke-dasharray:none;stroke-dashoffset:0;stroke-opacity:1;paint-order:normal"
     inkscape:connector-curvature="0" /><path
     sodipodi:nodetypes="cccccccssccscsccsccccccccccccccccssccssccccccccssccccccccscsccccc"
     id="rect7977-4-5"
     d="m 93.556656,48.249313 -30.729976,18.018281 0.02876,10.323421 9.377213,-5.311765 0.0016,-0.0016 2.079843,-1.199784 v 1.862544 c -0.02193,0.101068 -0.03727,0.201087 -0.03727,0.296457 v 7.644189 c 0,0.627443 0.504045,0.841857 1.131489,0.4796 l 7.645745,-4.41423 c 0.627412,-0.362218 1.131449,-1.159001 1.131449,-1.786452 V 68.66703 c 0.02249,-0.102276 0.03727,-0.20309 0.03727,-0.299565 v -3.973426 l 9.159727,-5.340182 c 0.62744,-0.362257 1.63261,-1.196147 1.63261,-1.823599 V 49.58607 c 0.0485,-4.219863 -0.0103,-2.871949 -1.45845,-1.336767 z m 11.518284,5.664122 c -0.18068,-0.01756 -0.39953,0.03799 -0.63481,0.173838 l -7.645744,4.41423 7.645744,-4.412673 c 0.23528,-0.135819 0.45413,-0.1914 0.63481,-0.173837 0.0753,0.0072 0.1441,0.0271 0.20488,0.05897 -0.0608,-0.03195 -0.12958,-0.05324 -0.20488,-0.06056 z M 85.974555,64.748783 c -0.157189,0.09075 -0.306534,0.208796 -0.442354,0.344576 0.135589,-0.135423 0.285499,-0.254013 0.442354,-0.344576 z m 8.881071,6.127303 c -0.18071,-0.01756 -0.39953,0.03807 -0.63482,0.173837 l -7.644187,4.41423 c -0.627451,0.362258 -1.133046,1.157491 -1.133046,1.784935 v 7.645746 c 0,0.109969 0.02066,0.201953 0.04967,0.285586 v 2.638609 c -0.02917,0.117558 -0.04967,0.234194 -0.04967,0.344568 v 7.645747 c 0,0.627444 0.505595,0.840316 1.133046,0.478051 l 5.632639,-3.251685 0.0048,-0.0032 2.006888,-1.159429 3.17564,-1.833063 1.88117,-1.084936 0.58205,-0.336811 5.182524,-2.990933 c 0.62744,-0.362241 1.1315,-1.159041 1.1315,-1.786484 v -7.645746 c 0,-0.392154 -0.1955,-0.622636 -0.49668,-0.651888 -0.18069,-0.01756 -0.39954,0.03799 -0.63482,0.173837 l -5.180974,2.990933 h -0.002 l -0.58205,0.336811 -1.88117,1.084928 c -6.1e-4,3.58e-4 -7.9e-4,0.0016 -0.002,0.0016 l -1.99137,1.150124 v -5.298937 c 0,-0.111781 -0.0197,-0.207254 -0.0497,-0.291801 v -4.162784 c 0,-0.392153 -0.19705,-0.622643 -0.49823,-0.651888 z M 72.545614,83.787081 c 0.06079,0.03179 0.114927,0.07685 0.158317,0.131934 -0.04355,-0.05555 -0.09716,-0.09992 -0.158317,-0.131934 z"
     style="opacity:1;fill:#80b650;fill-opacity:1;stroke:none;stroke-width:2.02006459;stroke-linecap:butt;stroke-linejoin:round;stroke-miterlimit:4;stroke-dasharray:none;stroke-dashoffset:0;stroke-opacity:1;paint-order:normal"
     inkscape:connector-curvature="0" /><path
     sodipodi:nodetypes="ccscsccccssccccscsccssccssccssccccccccccc"
     id="rect7977-8-35"
     d="m 105.67819,40.218986 c -2.21804,0.836372 -5.693494,3.092881 -8.280564,4.586514 -1.35472,0.291302 -0.99114,1.726677 -0.99114,2.354122 v 6.972121 c -0.0383,0.136 -0.0636,0.270206 -0.0636,0.397342 v 4.072762 l -1.75389,1.011982 c -0.0738,0.02769 -0.14679,0.05103 -0.22506,0.09623 l -7.644192,4.414229 c -0.627443,0.362253 -1.133046,1.159042 -1.133046,1.786489 v 7.644189 c 0,0.627446 0.505603,0.841859 1.133046,0.479605 l 5.775442,-3.335505 c 0.0851,-0.02883 0.17238,-0.06515 0.26386,-0.117961 l 3.58384,-2.068976 V 72.8115 c 0,0.127013 0.0254,0.231083 0.0636,0.322841 v 5.0894 c 0,0.627452 0.50561,0.840311 1.13305,0.478054 l 7.645744,-4.412676 c 0.62744,-0.362253 1.1315,-1.159045 1.1315,-1.78649 v -7.645741 c 0,-0.125611 -0.0265,-0.228599 -0.0637,-0.319737 v -2.553236 c 0.0381,-0.135707 0.0637,-0.270488 0.0637,-0.397342 v -7.644189 c 0,-0.125612 -0.0265,-0.228383 -0.0637,-0.319737 v -2.553236 c 0.0381,-0.135707 0.0637,-0.270489 0.0637,-0.397342 v -9.23356 c 0,-0.392153 -0.3374,-1.190271 -0.63859,-1.219523 z m -32.642474,42.934793 -0.634819,0.172285 -9.490035,5.39366 0.0047,20.490766 c 0.61046,0.009 0.709595,-0.0717 1.891368,-0.69556 l 7.594016,-4.36407 c 0.627443,-0.36226 0.999082,-1.01715 0.999082,-1.64459 V 83.947602 c 0,-0.392154 -0.0631,-0.764546 -0.364264,-0.793799 z"
     style="opacity:1;fill:#ceab0c;fill-opacity:1;stroke:none;stroke-width:2.02006459;stroke-linecap:butt;stroke-linejoin:round;stroke-miterlimit:4;stroke-dasharray:none;stroke-dashoffset:0;stroke-opacity:1;paint-order:normal"
     inkscape:connector-curvature="0" /><path
     sodipodi:nodetypes="cccccccccccccccccccccccccccccccsccccccccs"
     id="rect7977-8-0"
     d="m 63.182854,28.341365 c -0.419666,0 -0.837861,0.09465 -1.15943,0.282486 l -5.371889,3.138386 c -0.05468,0.02479 -0.111145,0.04669 -0.161417,0.07605 l -7.836653,4.577203 c -0.04967,0.02902 -0.08838,0.06157 -0.130376,0.09313 l -5.523992,3.226856 c -0.643147,0.375668 -0.643147,0.980885 0,1.356553 l 5.879423,3.43484 c 0.0097,0.006 0.01637,0.01278 0.02638,0.01863 l 4.297825,2.509778 -4.432858,2.588935 c -0.0094,0.0055 -0.01573,0.01152 -0.02479,0.01707 l -6.711877,4.196201 9.874812,5.754815 9.266443,-5.344322 c 0.0056,-0.0034 0.0098,-0.0074 0.0155,-0.01086 l 3.312224,-1.935493 c 0.0072,-0.0041 0.01605,-0.0067 0.02329,-0.01086 l 7.836653,-4.5772 c 0.643139,-0.375668 0.643139,-0.980885 0,-1.356553 l -7.836653,-4.5772 c -0.0088,-0.0052 -0.01899,-0.009 -0.02797,-0.01397 l -2.360772,-1.378281 2.045687,-1.195133 c 0.05507,-0.02491 0.112368,-0.04805 0.162974,-0.07761 l 7.835104,-4.578753 c 0.643138,-0.375668 0.643138,-0.979332 0,-1.355 L 64.345375,28.62385 c -0.321569,-0.187833 -0.742864,-0.282485 -1.162537,-0.282485 z m 33.649952,6.585643 c -0.41967,0 -0.84097,0.0931 -1.16254,0.280934 l -7.835093,4.578753 c -0.643154,0.375666 -0.643154,0.979332 0,1.355001 l 7.835093,4.5772 c 0.64314,0.375661 1.68037,0.375661 2.32353,0 l 7.836654,-4.5772 c 0.64313,-0.375669 0.64313,-0.979335 0,-1.355001 l -7.836654,-4.578753 c -0.32159,-0.187832 -0.74132,-0.280934 -1.16099,-0.280934 z"
     style="opacity:1;fill:#fada66;fill-opacity:1;stroke:none;stroke-width:2.02006459;stroke-linecap:butt;stroke-linejoin:round;stroke-miterlimit:4;stroke-dasharray:none;stroke-dashoffset:0;stroke-opacity:1;paint-order:normal"
     inkscape:connector-curvature="0" /><path
     sodipodi:nodetypes="cccccccccccccccccscccccccccccccccscccccccccc"
     id="rect7977-4-4"
     d="m 52.093122,21.864372 c -0.419674,0 -0.83941,0.0931 -1.16098,0.280934 L 20.719974,39.792905 c 0,0 -0.632667,0.24719 -0.628107,0.924416 l 20.676895,12.340903 9.036381,-5.431774 c 0.643147,-0.375663 0.643147,-0.979336 0,-1.355 l -5.086295,-2.970758 c -0.02638,-0.01782 -0.04705,-0.0374 -0.07605,-0.05432 l -4.789846,-2.798468 1.926182,-1.125287 c 0.100416,-0.03728 0.197805,-0.0791 0.285586,-0.130378 L 61.089197,28.079026 c 0.643146,-0.375663 0.643146,-0.980881 0,-1.356553 l -7.835096,-4.5772 c -0.321569,-0.187832 -0.741322,-0.280934 -1.160987,-0.280934 z m 33.426744,19.622147 c -0.419665,0 -0.83941,0.09465 -1.160987,0.282486 l -5.640695,3.343013 c -0.04283,0.02046 -0.08882,0.03872 -0.128827,0.06209 l -7.835095,4.575649 c -0.03783,0.02208 -0.06596,0.04782 -0.09934,0.07139 l -3.431737,2.003786 c -0.133904,0.04297 -0.26196,0.09348 -0.375616,0.159868 l -7.836653,4.5772 c -0.114514,0.0669 -0.200992,0.14307 -0.274723,0.221953 l -4.463897,2.606009 c -1.884843,1.049735 -1.648954,1.151716 -0.407986,1.817755 l 8.962366,5.059872 31.69081,-18.566389 c 0.64315,-0.375663 0.64315,-0.979336 0,-1.355 l -7.836641,-4.577196 c -0.321577,-0.187832 -0.741306,-0.282486 -1.160979,-0.282486 z m -23.057032,0.190659 c -0.09106,0.03524 -0.177255,0.07566 -0.257653,0.122618 l -7.836645,4.5772 7.836645,-4.575648 c 0.0804,-0.04696 0.166598,-0.08892 0.257653,-0.12417 z m 1.80512,0 c 0.09116,0.03524 0.178804,0.07721 0.259202,0.12417 l 7.835096,4.575648 -7.835096,-4.5772 c -0.0804,-0.04696 -0.168044,-0.08737 -0.259202,-0.122618 z"
     style="opacity:1;fill:#b0d592;fill-opacity:1;stroke:none;stroke-width:2.02006459;stroke-linecap:butt;stroke-linejoin:round;stroke-miterlimit:4;stroke-dasharray:none;stroke-dashoffset:0;stroke-opacity:1;paint-order:normal"
     inkscape:connector-curvature="0" /><path
     sodipodi:nodetypes="ccccccccccccccccccccccscccccccccccccccc"
     inkscape:connector-curvature="0"
     id="rect7977-7"
     d="m 63.251239,15.375109 c -0.419658,0 -0.839418,0.0931 -1.160988,0.280937 l -7.836652,4.577196 c -0.643131,0.375672 -0.643131,0.98088 0,1.356553 l 5.708701,3.333954 0.0016,0.0016 2.126402,1.241696 3.254792,1.901347 2.453901,1.434159 c 0.0024,0.0014 0.0056,0.0017 0.0079,0.0031 l 5.374988,3.139938 c 0.05515,0.03222 0.116501,0.05712 0.176945,0.08381 l 2.208669,1.289811 -5.042842,2.944371 c -0.01764,0.01029 -0.02988,0.02196 -0.04657,0.0326 L 65.52838,39.88778 c -0.643138,0.375663 -0.643138,0.980888 0,1.356552 l 7.836653,4.577201 c 0.643139,0.375672 1.677263,0.375672 2.320418,0 l 7.836645,-4.577201 c 0.01414,-0.0083 0.02368,-0.0179 0.03727,-0.02638 3.718427,-2.168532 7.432308,-4.336387 11.1504,-6.508038 0.64314,-0.375663 0.64314,-0.980888 0,-1.356552 l -5.48985,-3.20668 c -0.04673,-0.03638 -0.0923,-0.07398 -0.149003,-0.107095 l -7.836645,-4.57565 c -0.05618,-0.03282 -0.118416,-0.05982 -0.180044,-0.08692 l -3.096483,-1.808219 -2.461657,-1.438815 -3.237722,-1.890483 -0.0093,-0.0064 -2.12796,-1.241696 -5.708693,-3.3355 C 64.090832,15.468055 63.671087,15.37495 63.251406,15.37495 Z m 13.157317,31.141728 c -0.06032,0.05322 -0.110358,0.108382 -0.150553,0.166076 0.04021,-0.05765 0.09181,-0.112888 0.152103,-0.166076 z"
     style="opacity:1;fill:#f9b676;fill-opacity:1;stroke:none;stroke-width:2.02006459;stroke-linecap:butt;stroke-linejoin:round;stroke-miterlimit:4;stroke-dasharray:none;stroke-dashoffset:0;stroke-opacity:1;paint-order:normal" /><path
     sodipodi:nodetypes="cccccccssccccccsscccccccccccccccccsscccccssccssccscsscscccccccccssccccccc"
     id="rect7977-7-4"
     d="m 85.389026,62.756513 c 0,0.07787 0.0085,0.149379 0.02328,0.214193 -0.01504,-0.0652 -0.02173,-0.137318 -0.02173,-0.215745 0.01479,-10.318306 -0.0016,-10.320974 -0.0016,0.0016 z m -10.840001,8.842423 c -0.149115,0.277807 -0.251443,0.567573 -0.251443,0.830384 v 7.644189 c 0,0.235918 0.07154,0.412746 0.194015,0.523064 -0.12169,-0.110501 -0.192463,-0.287766 -0.192463,-0.523064 V 72.42932 c 0,-0.262485 0.101333,-0.552833 0.249891,-0.830384 z m -1.659215,0.704662 c -0.180704,-0.01756 -0.399528,0.03646 -0.634817,0.172286 l -9.330153,5.299066 -0.02645,9.6 9.3566,-4.988783 c 0.639314,-0.340872 1.131495,-1.159046 1.131495,-1.78649 v -7.64574 c 0,-0.392154 -0.195508,-0.621086 -0.496678,-0.650339 z m 12.635805,1.828398 v 0.0016 c 0.05198,0.06602 0.117205,0.115062 0.194015,0.147451 -0.07625,-0.03248 -0.141897,-0.08284 -0.194015,-0.149003 z m 0.554107,1.365865 c -0.13559,0.135422 -0.256185,0.28869 -0.35854,0.450114 0.102411,-0.161265 0.224455,-0.314812 0.360092,-0.450114 z m -0.600671,0.948341 c -0.02128,0.06257 -0.03574,0.124476 -0.04967,0.186255 0.01386,-0.06163 0.02847,-0.123848 0.04967,-0.186255 z m -0.0683,0.274725 c -0.01252,0.0749 -0.02173,0.148991 -0.02173,0.220402 v 7.644188 c 0,0.07843 0.0082,0.150565 0.02328,0.215745 -0.01504,-0.06516 -0.02173,-0.137317 -0.02173,-0.215745 v -7.64574 c 0,-0.07091 0.0078,-0.144523 0.02018,-0.21885 z m -1.701121,0.251447 c -0.180696,-0.01756 -0.399518,0.03647 -0.634817,0.172285 l -7.645741,4.414229 c -0.627444,0.362241 -1.131495,1.159053 -1.131495,1.786489 v 7.644194 c 0,0.0048 0.0015,0.009 0.0016,0.01399 v 3.239272 c -6.4e-5,0.0048 -0.0016,0.01049 -0.0016,0.0155 v 7.645737 c 0,0.62744 0.504051,0.84032 1.131495,0.47806 l 7.645741,-4.41423 c 0.627452,-0.362265 1.133047,-1.157491 1.133047,-1.784942 V 90.71484 c 6.5e-5,-0.0048 0.0016,-0.01049 0.0016,-0.0155 v -7.645757 c 0,-0.0041 -0.0015,-0.0068 -0.0016,-0.01086 v -5.420001 c 0,-0.392153 -0.197052,-0.621094 -0.49823,-0.650339 z m 1.769416,10.388336 c -0.02128,0.06256 -0.03574,0.124476 -0.04967,0.186255 0.01386,-0.06167 0.02847,-0.1238 0.04967,-0.186255 z m -0.0683,0.274725 c -0.01252,0.0749 -0.02173,0.148999 -0.02173,0.220402 v 7.644192 c 0,0.07843 0.0082,0.150553 0.02328,0.215741 -0.01504,-0.06516 -0.02173,-0.137306 -0.02173,-0.215741 v -7.645744 c 0,-0.0709 0.0078,-0.144491 0.02018,-0.21885 z M 72.695792,103.87061 c -0.135589,0.13541 -0.283939,0.25401 -0.440801,0.34458 0.157196,-0.0907 0.305085,-0.20878 0.440801,-0.34458 z"
     style="opacity:1;fill:#eca554;fill-opacity:1;stroke:none;stroke-width:2.02006459;stroke-linecap:butt;stroke-linejoin:round;stroke-miterlimit:4;stroke-dasharray:none;stroke-dashoffset:0;stroke-opacity:1;paint-order:normal"
     inkscape:connector-curvature="0" /></g></svg>